<svg version="1.1" class="seal" xmlns="http://www.w3.org/2000/svg" xmlns:xlink="http://www.w3.org/1999/xlink" viewBox="0 0 586.3 572.2">
	<path class="seal" d="M84.6,263.2c-6.5-2.5-12.9-5.4-20.1-5.4c-1.8,0-3.7-0.3-5.4-0.8c-9.8-3-19.3-6.9-28.4-11.7l-0.1,0.1
		c3.7-0.7,3.7-0.7,4.2-5.6c-0.5-0.7-2.1-0.1-2.1-1.6v0.1c2.9-0.5,5.6,0.4,8.4,0.7c7.9,1.1,15.9,1.2,23.9,1.9
		c4.2,0.3,8.2,0.9,11.9,3.3c1,0.5,2,0.9,3,1.1c1.4-2.2,2.6-4.1-0.3-5.6c-0.1-1.7,1.5-2,1.8-3.2c0-1.3-2.2-1.6-1.4-3.7
		c3-0.7,6.3-0.6,9.5-0.6c12.5,0.1,25-0.3,37.5,1c4.6,0.3,9.2,1,13.8,2c4.1,0.9,7.9,2.8,11,5.5c2.3-3.3,1.4-7.5-1.9-9.2
		c-0.6-0.3-1.4-0.6-1.4-1.2c-0.1-2.5-2.6-3.1-3.6-4.7c0.5-2.3,3.7-1.1,3.9-3.5l-0.1,0.1c3.6-3.6,2.8-8.4-1.9-11.2
		c-1.3-0.7-2.7-1.3-4.1-1.8c-1.2-0.5-2.7,0.3-3.9-0.9c-0.5-1.5,0.3-3,0.2-4.3c0.8-1.1,1.8-0.9,2.4-1.2c3.9-2.3,7.2-0.2,10.6,1.1
		l-0.1,0.1c-2.4-2.8-5-5.4-3.2-9.7c0.3-0.7-0.4-1.9-0.6-2.9c-2.5-9.1,2.7-16.8,12-18l1-0.1c7.1-1.1,12.3,1.3,15,8.2
		c0.9,2.2,3.5,2.3,5.4,4.1c-1.2,2.9-0.8,6.2,0,9.4c0.7,2.6,0.1,4.2-2.3,5.2c-2.6,1.1-3.4,3-2.6,5.6c0.9,2.9-0.6,6.3,1.9,9.7
		c0.9-4,4.6-4.8,6.5-7.8c2.1,0.9,4.2,0.5,5.8,0.1c2.4,0.7,1.8,3,3.4,4.2c5.2-2.7,10.6-5.2,15.4-8.8c8.9-6.6,18.9-10.9,29-15.4
		c0.6-0.3,1.2-0.6,1.8-0.8c1.6-0.5,21.6,1.3,23.1,2.1c0.4,0.2,0.6,0.7,0.9,1c-0.9,2-2-0.3-3.1,0.4c-0.7,0.5,1,1.4-0.6,2.2
		c-3-1.9-6.7-2.7-10.5-0.4c0.4,2,3.9,1.5,3.3,4.5c-2.7,0.9-4.7-2.1-7.4-1.7c-2.5,0.4-4.7-1.5-7.6-2.1c-2.3,2.3-4.8,4.7-7.2,7.2
		c-1.7,2-4,3.6-6.5,4.5c-3.8,1.1-6.7,3.5-9.6,6.1c-4,3.8-8.3,7.2-12.9,10.2c-2.8,1.7-5.8,3-9,3.9c0.2,3.3-1.1,5.2-4.3,6.1
		c1.7,3.6,1,6.6-1.7,9.6c-1.2,1.6-2.2,3.3-2.8,5.2c-2.6,5.9-5.9,11.5-9.9,16.6c5.7,1.3,9.2,4.2,23.9,19.6
		c1.3-8.2,2.9-16.1,5.9-23.6c1.3-3.2,1.7-6.8,4.4-9.3c-0.7,1.7-0.1,3.6-1.5,5.5c-2.1,2.7-0.8,6.1,2.1,7.4c2.3,1.3,5.2,0.5,6.4-1.8
		c0.1-0.2,0.2-0.3,0.2-0.5c1.3-2.7,0.4-5.9-2.7-6.9c-2.2-0.7-3.2-2.3-4.7-3.6c0.7-4.6,2.8-8.9,6.2-12.2c0.2,1.1-1.3,1.9-0.6,3.4
		c2.3-0.9,0.9-2.1,0.5-3.2c-0.2-0.8,0-1.7,0.5-2.3c4-6.2,7.5-12.9,13.4-17.6c0,0.7,0,1.4,0,2.1c-1.3,0.8-2.4,1.7-3.4,2.9
		c-1.9,2.8-1.6,5.4,0.9,7.3c2.1,1.8,5.3,1.6,7.1-0.5c0.1-0.1,0.2-0.3,0.3-0.5c1.7-2.4,1.2-5.7-1.2-7.5c-1.2-1-3-0.4-3.9-1.8
		c1,0.2,2,0.1,1.9-1.2c-0.1-1.1-1.2-0.6-1.8-0.7c2.8-3.6,5.7-7.1,10.1-9l-0.1-0.1c0.1,0.7,0.1,1.4,0.2,2.1
		c-1.6,0.3-3.1,1.1-4.2,2.4c-2.3,2.2-2.5,4.9-0.6,6.9c1.8,2.1,4.9,2.4,7.2,0.7c2.5-2,2.8-4.8,0.9-7.4c-0.9-1.3-2.6-1.3-3.4-2.7
		c2.3-0.4,2.6-1.5,0.9-3.1l0.1,0.1c1.5-1.9,3.4-3.4,5.6-4.4l0.6,0.6c-0.7,0.5-1.3,1.1-1.9,1.6c-2,2-2.1,5.2-0.1,7.3
		c2,2,5.2,2.1,7.3,0.1c0.1-0.1,0.1-0.1,0.2-0.2c2-1.9,2-5,0.2-7c-0.1-0.1-0.1-0.1-0.2-0.2c-0.9-0.8-1.8-1.4-2.8-2l-0.1,0.1
		c1.8,0.1,3.2-0.4,2.8-2.7l-2.9,0.6l0.1,0.1c4.1-3.4,8.9-5.8,14.1-7.1c-0.8,1.3-2.8,1.4-3.2,3c-1.5,0-3,0.6-4.1,1.5
		c-2.2,1.9-2.5,5.2-0.6,7.4c0,0,0.1,0.1,0.1,0.1c1.9,2.1,5.1,2.4,7.3,0.5c0.1-0.1,0.2-0.2,0.3-0.3c2-1.7,2.2-4.8,0.4-6.8
		c-0.1-0.1-0.2-0.2-0.3-0.3c-1-0.9-2.1-1.6-3.2-2.3c2.5,0,4.8,1.3,6.2,3.4c2.1,3.1,4.6,3.7,7.2,2.4s3.3-3.6,2.1-7.2
		c-0.1-0.5-0.2-1-0.3-1.5c2.2-0.3,3.1-1.8,3.7-4.7c-2.2,2.2-5,0.7-6.6,2.8c-2.2,0.5-4.4,1-5.9,3l0.1,0.1c-0.7-1-2-1.4-3.2-1
		c3.5-2.4,7.5-3.4,11.5-4.2c9.8-2,19.8-2.5,29.8-1.6c0.6,0.1,1.2,0.3,1.7,0.7l0.1-0.1c-2.2,0.9-4.4-0.1-6.7,0.3
		c0.9,1.6,2.2,2.8,3.7,3.7c0,0.3,0,0.7,0,1c0,4.3,1.5,6.7,4.5,7.1s4.8-1.1,6.2-5.1c0.1-0.3,0.2-0.6,0.3-1l-0.1,0.1l2.1-0.1
		c-0.4,0.9-0.7,1.8-1,2.8c-0.7,2.5,0.6,5.2,3,6.1c2.5,1.1,4.5,0.2,6.2-1.7c1.1-1.2,1.1-3.8,3.8-3.2c-0.3,0.6-0.7,1.1-1,1.7
		c-1.6,3.1-1.3,5.3,1.1,7c2.6,1.9,5.4,1.8,7.4-1.1c1.5-2.2,3.4-2.4,5.5-2.5l-0.1-0.1c-1.2,0.8-2.3,1.8-3.4,2.8
		c-1.7,1.5-1.8,4.1-0.4,5.8c1.3,1.8,3.1,3,5.5,2.4s4.1-2,4.4-4.6c0.2-1.6-0.6-2.8-1.3-4.1l0.3-0.4c8.6,5.2,15.2,12.4,20.9,20.6
		c1.7,2.4,3.8,4.6,4.1,7.7c-2.5-1.1-3.3-3.7-4.9-5.9c0.6,3-2.1,3.1-3.4,4.4c-2,1.9-2.4,3.9-1.2,6.2s2.9,3.7,5.6,3.1
		c2.4-0.3,4.1-2.5,3.9-4.9c0-1-0.1-2-0.2-3c3.3,2.9,4.8,7.1,6.5,10.9c4.5,9.4,7.8,19.4,9.7,29.7c0.2,1,0.5,1.9,0.9,3.1
		c7.5-3.9,13.4-10.7,22.8-11.2c-2.8-6.3-4.5-13-8.4-18.6c-2.8-4.1-4.9-8-1.7-13.3c-4.3,0.1-6.6-1.6-7.2-5.4
		c-0.2-1.4-1.7-1.9-2.9-2.6c-7.2-4.3-14.1-8.9-19.1-15.8c-0.4-0.5-0.8-1.2-1.4-1.4c-5.7-1.8-9.2-6.4-13.6-9.9
		c-5.2-4.2-9.8-4.4-15.8-0.9c-0.4,0.2-0.8,0.3-1.3,0.3c-2.2-2.4,1.6-3.4,1-5.4c-1.8-0.7-3.6-0.4-5.4-0.4s-3.3,0-5.2,0
		c-0.1-1.3,0.7-3.1-1.5-3.9c4.6,0.3,8.8,0,12.9-0.1c6.9-0.1,12.8,2.6,18.8,5.8c11.6,6.1,22.1,14.2,33.8,20.9c1.2-1.6,1.1-4.8,4-4.6
		c2.3,0.2,4.7-0.3,6.9-0.2c4.6,0.2,5.7,4.4,7.6,7.5c0.8-0.8,0.6-1.9,0.9-2.8c1.4-5,1.7-9.5-4.5-11.5c-0.4-0.1-0.6-0.8-1-1.2
		c0.9-4,1.8-7.9,1.8-12.3c2.7-1.1,5-3.2,6.2-5.8c1.9-3.6,5.5-6,9.6-6.4c1.9-0.2,3.8-1,5.2-2.4c2.5-2.1,4.7-4.8,8-6.1
		c3.2,1.4,3.4,4.2,3.6,7c0.4,5-1.7,9.4-3.5,13.8c-0.9,0.9-2,1.7-1.7,3.3c-0.7-0.1-0.9,0.4-1.2,0.9c-0.6,0.4-1.2,0.8-0.8,1.7
		c0.9-0.4,1.2-1,0.7-1.8c0.9,0.4,1.1,0,1.2-0.8c1.3-0.3,2.2-1.4,2.3-2.7c1.5-0.9,1.5-2.8,2.4-4.4c2.8,2.5,2.2,5.6,2.6,8.9
		c4.8-0.6,8.9,0.5,12.2,4.2c1.8,2,4.4,1,6.7,0.8c3.9-0.4,7.6-2.3,11.7-2.1c1.8,0.1,2.5-2,4.1-2.8c1.7,1.1,2.2,2.4,0.7,4
		s-3.6,3.1-6.1,2.9c-4.8-0.4-9.2,2-14,2.1c3.2,2.3,6.4,4.1,10.5,2.4c1.5-0.8,3.3-0.6,4.6,0.5c0.2,1.5-0.7,2.7-1.7,2.7
		c-5-0.2-10.4,1.7-14.7-2.3c-2.7-2.5-6.2-3.8-9.8-3.6c1.1,3.4,2.9,6.3,6.5,7.9c-2.2,3.3-6.1,0.8-8.5,3.5c5.3-0.2,10.4-0.1,15.1-2.4
		c4.4-2.1,9.2-1.5,13.8-1.3c7.6,0.4,15.3-0.3,22.8-2c5.2-1.3,10.8-0.3,16.4,0.1c-0.3,1.7-1.9,2.9-0.5,4.9
		c-4.3-0.9-8.3-2.9-12.3,0.1c1.2,1.6,4.7,0.5,4.5,4.1c-4.4-2-9.3,0.6-13.5-2.4c-1-0.7-2.3,0-3.4,0.4c-9.5,3.6-19.4,6-29.5,6.9
		c-0.3,0.1-0.6,0.2-0.8,0.4c1.5,3.6,5.2,5.7,9,5.1c1-0.1,2-0.6,2.9-0.4c1.7,0.5,2.7,1.5,1,3.1c-1.7,1.1-1.7-1.5-2.9-1.1
		c-5.6,2-9.1,0.9-14.9-5.1c-3,0.8-6,2.2-9.3,2.6c-4.2-2.3-4.2-5.8-2.9-9.8c0.5,0,1-0.4,1-0.9c0,0,0-0.1,0-0.1c0.6-0.1,1.1-0.3,1-1
		l0.7-0.2l-0.4-0.4c-0.1,0.2-0.2,0.5-0.3,0.7c-0.7,0-1.2,0.2-1,1c-0.8-0.2-1.1,0.2-1,1c-4.9,5-3.3,9.8,4.3,12.5
		c-2,3.8-5.2,5.4-9.8,4.8c0.2,2.9-0.2,5.9-1.1,8.6c0.5,1.2,1.7,2,3,2c2.7-2.9,6.5-4,10.3-5.2c11.6-3.5,23.2-7.3,35.2-9.3
		c2.3-0.4,4.6-0.4,6.9-0.9c4.4-0.8,7.5,0.6,9,4.8c4.7,0.5,5.6,1.2,6.9,5.6c0.5,1.6,0.9,3.3,1.2,4.9c0.7,4.3-0.2,5.1-4.8,4.3
		c-1.2,0.7-1.3,1.8-1,3c0.3,0.1,0.6,0.4,0.8,0.4c3.1-0.5,6.2-1.2,9.2-2c3.9-1.3,7-0.5,9.8,2.4l-0.1-0.1c0.7,3.7,2.3,7.3,0.6,11.5
		c-5.5,0.3-10.3,3.6-16.1,4.2l-1.5,5.5c-1.3,1.4-3.2,0.3-4.7,2c-0.7,2-0.4,4.5-0.2,6.9c0.3,3.5-1.3,7-4.2,9c-2.6,2-5.2,4.1-8.5,5.1
		c-2.3,0.6-4.2,2.2-5.2,4.3c-2.8,5.8-7.6,9.6-13,12.5c-2.4,1.3-3.4,3-4,5.7c-1.2,5.7-1.7,11.1,0.7,16.5c1.7,3.7-0.8,6.2-2.9,8.8
		l0.1-0.1c-3.7,0.9-7.3,2.1-11.2,0.4c-1.2-0.6-2.3-1-3-2.4c-2.4-4.7-3.8-9.9-4.1-15.2c0-1.1,0.1-2.4-1-3.3
		c-12.8,3.3-25.6,6.7-38.7,2.3c-1.9,5.1-3.2,6-8.2,5.6c-4.8-0.4-9.6-1.3-14.2-2.9c-2.1,6.2-4.7,12.2-7.8,18
		c-13.7,23.9-32.9,41.3-59.8,48.8c-23.8,6.6-46.4,2.6-67.3-10.5c-17.3-10.8-31.1-26.5-39.6-45.2c-0.8-1.5-1.3-3.1-1.5-4.7
		c-0.1,0.2,0.5-0.3,0.1,0.1c-1-0.4-0.5-1.4-1-2c0.5-0.1,0.5-0.4,0.2-0.3c-0.6,0.2,0-0.2-0.2,0.4c-2-3.6-2.3-7.9-4.5-12.1
		c-4,2.2-8.4,3-12.9,5c-1.8-0.6-4-1.5-6.1,0.2c-0.8,0.7-1.8,1-2.8,0.6c-3.3-1.7-6.9-1.6-10.5-2.2c-1.7-0.3-3.3-1.1-5.2-0.5
		c-1.5,0.4-3.1,0-4.2-0.9c-0.7-0.7-1.7-1.1-2.7-1c-2.8,0.6-5.7-0.6-7.3-2.9c-3.2,1-5.8,0.6-7.9-2.4c-2.2,2.9-2.9,5.9-3.7,8.9
		c-0.7,3.1-2.1,5.9-4,8.4c-3.1,3.7-2.7,8.5-2.8,12.9c-0.5,9.9-0.9,20,1.3,29.8c0,0.5-0.1,1-0.2,1.5c-2,1.1-4.1,2.1-6.5,1.7
		s-3.7-1.5-2.8-4.1c2.6,0.5,5.3,0.4,7.9-0.2c-1.9-1.9-4.6,0.1-6-2h5.2c-1.7-0.2-3.5-1.5-5,0.1c-0.6,0.7-1.8,1-1.9,2.1
		c-1.2-0.9-0.5-2.2-0.7-3.2c-0.9-6.9-2.8-13.7-5.5-20.2c-1.5-3.5-2-7.4-1.3-11.2c0.9-6.1,1.7-12.2,4.4-17.9
		c2.5-5.1,0.3-10.1-0.4-15.4c-6.5-1.5-8.8-8.7-14.9-10.4c0.6-2.7,2.3-3.1,3.7-3.9c11.6-6.7,22.6-14,32.1-23.5
		c0.7-0.7,1.7-1.1,1.5-2.4c2.9-1.1,5.2-2.8,5.8-6.2l0.4,0.1h-0.3c-1.8,2.1-4.4,3.6-5.8,6.1c-5.5,3.1-10,7.5-15.1,11.2
		c-7.2,5.3-14.9,9.8-22.7,14.8c-1.1-2.1-3.8-2.2-5.6-3.5c-1.1-1.9-0.7-3.7-0.7-5.5l-0.1,0.1l29.5-16c1-0.5,2.2-0.8,2.4-2.2
		c1.5,0.2,2.2-0.9,2.9-1.9l0.3-0.2l-0.2,0.2c-1.2,0.3-2.5,0.5-2.9,2c-0.8-0.1-1.6,0.2-2.3,0.7c-8,4.2-16.1,8.3-24,12.6
		c-2.3,1.2-5,1.6-6.8,3.7l0.1-0.1c-2,0.3-3.5-0.2-3.2-2.4c0.3-1.8-0.3-3.6-1.7-4.9c-1.9-1.9-2.1-3.9-1.3-6.3
		c-2.3-1.8-3.7-3.9-2.9-6.6c-0.8-1.7-2.9-2-3.1-3.8c2.8,0.8,5.2-0.5,7.7-1.4c15.2-5.5,30.6-10.1,46.6-12.6c0.7-0.1,1.6-0.2,1.8-1.3
		c-9.3,0.8-18.3,3.1-27.2,5.4c-8,2.1-16.2,3.7-23.9,6.8C87.5,260.6,85.6,261.2,84.6,263.2z M195.6,284.5l-1.2-1.1
		c-1.3-4.1-4.8-6.4-7.6-9.2c-1.5-0.8-2.1-3-4.3-2.7c0.3-0.8-0.2-1.1-0.9-1.1c-3.2-3.6-4.3-4.2-7.6-4.2c2.9,0.7,4.5,3.8,7.7,4.1
		c-0.2,0.8,0.3,1,0.9,1.1c1.2,1.4,2.3,2.8,4.3,2.7c-0.6,1.2,0.3,1.8,1,2.5c2.2,2.3,4.4,4.5,6.6,6.8l1.2,1l1.1,1c0,1.3,0.9,1.8,2,2
		c0,0.8,0.4,1.5,1,2c0.2,1.6-1.1,3-0.4,4.8c0.9,2.5,2.4,3.9,5,4c2.4,0.1,4.5-1.5,5.2-3.8c0.6-2.3-0.2-4.1-2-5.7
		c-2.3-2.1-4.6-0.9-6.9-0.3c-0.4-0.9,0.9-3.3-1.9-2c-1,0.4-1.3-0.8-2.1-0.9L195.6,284.5z M141.6,262.3l-0.8,1.2
		c-0.8,0-1.6,0.2-2.2,0.7c0.2,0.3,0.1,0.3-0.1,0.2l0.2-0.3c0.8,0.1,1.5-0.2,2.1-0.7l0.8-1.2L141.6,262.3z M353.8,356.3
		c0.7-0.2,1.2-0.9,1-1.6c0-0.1-0.1-0.3-0.2-0.4c1.9-0.3,2.2-2.2,3.3-3.3c1.3-1.4,1.7-3.6,3.7-4.5c1.7,0.7,1.7,0.7,1.5-1l-1.6,1.1
		c1-3.8,2.8-7.3,5.3-10.3c0.2,1.2,1.2,0.9,2,1c-0.8,1.2-2.4,1.6-3.2,3c-1.6,2.4-0.9,5.6,1.4,7.1c0.1,0.1,0.2,0.1,0.3,0.2
		c2.3,1.5,5.5,0.9,7-1.5c0.1-0.1,0.2-0.3,0.3-0.4c1.4-2.6,0.4-5.8-2.2-7.2c-1.1-0.7-2.4-1-3.8-1c-0.2-1,0.9-2.5-1-3
		c1.4-6.5,4.2-12.5,5.5-19c0.3-1.5,0.9-2.8,0.3-4.3c-1.7,1.8-1.1,4.9-3.8,6.4c-2.2-2.3-4.9,0.1-7.3-0.8c-2.2,3.4-3.9,6.9-7.4,8.7
		s-5.5,0.8-6.1-3.2c-0.5-3.7-1.2-4.3-6-5c0,8,0,16,0,23.9c0,4.1,1.8,5.9,6,6.1c1.8,0.1,3.6,0,5.1,0c2.8,2.5,1,4.9,0.8,7.2
		C353.5,354.6,353.6,355.5,353.8,356.3l-1.2,1.1c-9.9-0.2-19.5,1.8-29,4.4c-3.6,1-7.3,1.9-11.1,2.5c-5.3,0.8-6.4-0.1-8.4-5.7
		c3.8-2.4,8.2-3.5,12.4-4.8c5.6-1.8,7.9-5.8,8.5-11.1c0.3-2.8,0-5.6,0-9.3c-8.4,11.3-17.3,20.4-28.3,27.4c-7.2,4.6-15.5,7.1-24,7.2
		c-12.1,0-22.8-4.3-32-12.2c-17.9-15.3-25.7-34.8-23.4-58.2c1.3-13.1,6.8-24.6,14.7-35c5.5-7.2,12.2-13.2,21.1-16.1
		c1.1-0.4,2.4-0.1,3.2-1.8c0.3-3-0.7-6.5,0.7-10.3c7.6,0.8,15.2,0.8,22.8,0.9c11.7,0.2,23.3,0.7,35,0.9c1.9,0,2.9,0.8,3.3,3.2
		c1.9-2.6,4-3,6.5-2.8c9,0.7,18,0.7,27,0.7c1.6,0,3.3-0.5,4.9,0.8c1.2,3.3,0.9,6.9-0.6,10.1H353c-6.2,0-8,1.8-8.2,7.9
		c-0.2,11.3-0.5,22.7-0.8,34c-0.1,2.6-0.1,5.3-2.2,7.3c-0.7,0-1.2,0.2-0.9,1.1c-4,1.1-6.4,4.4-9.4,6.8c-2,1.5-3.4,3.8-6.1,5.3
		c-0.1-2.7-0.2-4.8-0.3-7.2c-6.3-1.5-12.5-1-18.5-0.6c-0.3,0.7-0.6,1-0.6,1.3c-0.1,1.5-0.2,3-0.2,4.5c0.1,14.8-5.4,27.1-16.5,37
		c-3.7,3.3-8.1,5.3-12.4,8c0.4,0.2,0.8,0.3,1.3,0.4c0.5,0,1,0,1.5-0.1c8.6-1.1,16.7-4.9,23-10.9c5.4-5.2,10.3-10.9,14.6-17
		c6.5-9,12.7-18.4,21.8-25.2c0.9-0.6,1.5-1.4,1.8-2.4c0.6-0.1,1.1-0.3,1-1.1c1.5,0.4,2.5-0.8,3.6-1.4c5.5-3.1,11.8-4.7,18.1-4.7
		c2.7,0,4.8,1.1,5.1,3.8c0.2,2.2,1.4,3.6,2.6,5.2c1.4,1.5,2,3.5,1.7,5.5c-0.1,0.8-0.2,1.7,0.9,2c0.8-0.1,1-0.8,1-1.5
		c0.5-5.3,0.7-10.6,0.7-15.9c-0.3-9.5-2.4-18.8-4.8-28c1.5,0,2,1.6,3.3,1.9c2.1,0.7,4.4-0.1,5.8-1.8c1.6-1.8,1.6-4.5,0-6.3
		c-1.5-1.7-3.3-2.7-5.7-1.8c-2.2,0.8-3.7,2.2-3.4,4.8c0.3,1.1,0.3,2.3,0.2,3.4c-1.8-4.4-3.4-8.9-5.5-13.2
		c-8.3-17.3-20.2-31.3-37.9-39.4c-13.2-6.2-27.8-8.5-42.2-6.6c-25,3.2-44.3,15-57.7,36.4c-10.1,16.2-14.9,33.9-15.7,52.8
		c0,1.3-0.3,2.6-1,3.8c-1.2,1.3-2.9,2.6-0.3,4.8c0.5-1.9,0.8-3.4,0.2-4.9c0.7,0.9,1.1,2,1.1,3.1c0.5,4.5,0.5,9-1.9,13.2
		c-3.4-1.8-6-0.2-8.3,2.2c0.3-1.5,1.1-3.1-1-4.4c-0.2,1.5,0.2,3,1.1,4.3c0,1-0.1,2,0,2.9c0.1,2.2,1.6,4.1,3.8,4.6
		c2.3,0.7,4.2-0.3,5.7-2c1.7-1.9,1.4-3.9,0.1-5.8c-0.5-0.7-0.9-1.3-1.4-2c1.8,0.6,2.2-0.7,2.8-2.2c0.8,4.3,1.6,8.4,2.4,12.5
		l-1.6-2.8c-1.6,1.1-1,2.4-0.4,3.7c-3.8-0.8-6.6,0.5-8.2,4.1c0.5-2,0-3.5-2.4-5.2c0.4,2.6,0.9,4.1,2.5,5.1c0,1.2,0.3,2.3,0.9,3.3
		c1.9,3.2,4.5,4,7.4,2.3c2.7-1.6,3.2-4.3,1.4-7.3c-0.5-0.8-1.1-1.6-1.7-2.4c0.8-0.2,1.7,0.1,2.1-0.9c1.7,2.7,2.7,5.8,3.1,9
		c-2.2,0-1.9,1.7-2,3c-0.8-0.1-1.6,0-2.4,0.1c-2.3,0.7-4.3,2-4.6,4.6c-0.3,2.4,0.9,4.7,3.1,5.7c2.3,1.2,4.5,0.3,6.2-1.6
		c0.4-0.5,0.7-1,1.1-1.5c1.4,1.2,2.6,2,2.6,3.7c-0.8-0.1-1.7-0.2-2.5-0.1c-2.3,0.3-4.1,1.4-4.5,3.9c-0.5,2.4,0.6,4.8,2.7,6
		c2.1,1.3,4.1,0.8,6-0.7c0.7-0.6,0.9-1.8,2.2-1.8c0.8,0.6,1.7,1,1.8,2.3c-2.9,0.5-5.5,1.4-5.9,4.9c-0.3,2.5,1,4.2,3,5.3
		c3.5,1.8,5.7-0.7,7.7-2.8l1.8,1.4c-0.6,0.3-1.2,0.7-1.7,1c-3.1,2.4-3.7,5.1-1.8,7.6c2.3,3,5.1,3.4,8.1,0.7
		c1.5-1.3,3.2-1.5,4.8-2.2c0-1.1-1.2-1.8-0.8-2.9c3.8,2.7,7.8,5,11.2,8.2c-1.4,0.9-2.8-2.3-4.2-0.1h0.1c-0.6-1-1.4-1.8-2.2-2.7
		c-2.5-2.2-4.7-2.1-7,0.2c-2.1,1.8-2.3,5-0.5,7.1c2.1,2.3,5.2,2.8,7.5,0.8c1-1,1.9-2.1,2.7-3.3l3.7-0.2c-0.4,0.3-0.8,0.6-1.3,0.8
		c-2.6,1-4,3-3.7,5.8c0.2,2.2,1.9,4,4.1,4.5c2.8,0.6,5.1-0.3,6-3.1c0.8-2.4,3.1-1.9,4.7-2.9c-0.9,0.9-1.8,1.9-2.7,2.9
		c-1.7,2.3-1.3,5.6,1.1,7.3c0.2,0.1,0.4,0.3,0.5,0.4c2.6,1.6,5.8,1,7-2c1-2.5,3-3.5,5.3-5.6c-4.4-0.5-7.8-2.2-11.4-2.8
		c-2.4-3.4-6.6-3.4-9.9-5v-2c3.3,1.5,6.6,3.1,9.9,4.6c15.2,7.1,32.4,8.4,48.5,3.7c5.8-1.6,10.9-4.8,16.7-6.4
		c-0.2,0.6-0.5,1.1-0.7,1.7c1,0.7,2.5,0.8,2.7,2.4c-0.9,0.2-1.5-0.4-2.3-0.7c-2.4-0.9-4.5-0.5-6,1.8s-1.5,4.6,0.2,6.3
		s3.7,2.8,6.2,1.7c2.4-1,3.7-3.6,3.1-6.1c-0.3-1.1-0.8-2.1-1.3-3.2c2.3-0.7,3.1,1.5,4.5,2.3c2.3,1.5,5.4,0.9,7-1.4
		c1.7-2.3,1.5-4.4-0.3-6.7c-0.9-1.1-2.4-1-3.2-2.2c1-0.5,2.7,0.8,3-1.3c0.3-1.8-1-1.5-2.1-1.7c1.3-1.9,2.8-3.6,5.1-4.1
		c0,1.3-1.1,1.9-1.6,3c-1.3,2.5-0.4,5.5,2,6.9c2.4,1.3,5.4,0.6,7.1-1.5c1.6-2.2,1.3-4.6-0.5-6.8c-1.1-1.4-3.2-0.9-4-2.5
		c1.5-0.1,3.5,0.5,3.2-2.8c0.5,1.1,1,2.2,1.7,3.2c1.3,2,4,2.7,6.1,1.5c2.4-0.9,3.7-3.5,3.2-6c-0.6-2.6-2.6-3.9-5.4-4.1
		c-2.2-0.1-3.1,1.7-4.7,2.3c-0.3-1.2,0.9-2,1-3.1L353.8,356.3z M135.7,236.2c1.2,1.2,2.5,1,4.6,0.8c-1.9-1.1-3.3-0.7-4.7-0.7
		c-2-1.6-4.2-0.9-6.3-0.1H135.7z M320.6,383.1c-2,0-3.4,1.2-5.1,2l-4.8,2.2c-2-2.2-3.7,0.6-5.9-0.1c0.9,1.5,2.1,2.7,3.4,3.8
		l1.6-1.8c-0.2,1-0.2,2-0.1,2.9c0.6,2.5,2,4.2,4.7,4.4c2.2,0.3,4.4-1,5.2-3.1c0.9-2.4,0.7-4.5-1.4-6.2c-0.9-0.7-1.8-1.4-2.7-2.2
		c1.8-0.1,3.2,1.1,4.8,1.7c0.6-1,0.8-2.2,0.6-3.3c0.5-0.1,1-0.4,0.3-0.8C320.9,382.3,320.6,382.7,320.6,383.1z M290.7,192.3
		c-0.6-1.4,1.2-1.8,1.3-3.1c-2.5,0.2-5.1-1.1-7.3,1c-1.3,0-2.6,0.2-3.9,0.5c-2.7,1.1-4.1,4.2-2.9,7c1.1,2.7,4.2,4.1,7,2.9
		c0.3-0.1,0.7-0.3,1-0.5c2.7-1.9,3-5,0.7-7.8c-0.6-0.8-1.3-1.5-1.9-2.3c1.3,0,2.5,0.7,3.1,1.8c1,1.7,2.1,0.5,3.2,0.3
		c-0.3,1.3-0.5,2.5-0.5,3.8c0.3,2.4,2.2,4.2,4.6,4.4c2.4,0.3,4.6-1.1,5.5-3.3c0.9-2.3,0-4.1-2.2-5.9
		C295.2,188.9,293.1,191.2,290.7,192.3z M372.7,242.3c-1.5-0.2-3,0.2-4.2,1.1c-2.3,1.7-2.8,5-1.1,7.3c0,0.1,0.1,0.1,0.1,0.2
		c1.4,2.3,4.3,3,6.6,1.6c0.1-0.1,0.3-0.2,0.4-0.3c2.3-1.5,3-4.7,1.5-7c-0.8-1.4-2.3-1.9-3.3-3c0.8-0.3,1.3-0.6,0.6-1.6
		C373,241.2,372.8,241.8,372.7,242.3L372.7,242.3z M201.8,276.2c-0.7,1.3-1.1,2.8-1.2,4.2c-0.1,2.8,2,5.1,4.8,5.3
		c2.8,0.1,5.2-2,5.5-4.7c0.4-2.8-1.5-5.3-4.3-5.8c-1.3-0.1-2.7-0.1-4-0.1c0.2-0.9,0-1.8-0.6-2.5C201.2,274,200.5,275,201.8,276.2z
			M281.8,389.2c-0.9-0.7-1.9-1.3-2.9-1.8c-2.3-0.7-4.8,0.1-6.1,2.1c-1.3,1.6-1.5,3.8-0.4,5.6c1.2,2.1,3.7,3.2,6,2.5
		c3.2-0.7,4.1-3.4,4.3-6.4c1.5-0.2,2.3-1,2.9-2.8C284.1,388.8,282.7,387.1,281.8,389.2L281.8,389.2z M205.7,263.2
		c0-0.6,0.1-1.3-0.5-1.8c-1.8,1.2-0.8,1.5,0.6,1.7c-0.9,1-1.7,2-2.4,3.1c-1.3,2.4-0.4,5.4,1.9,6.7c0.1,0,0.1,0.1,0.2,0.1
		c2.6,1.4,5.8,0.5,7.2-2.1c0,0,0-0.1,0.1-0.1c1.2-2.5,0.2-5.5-2.3-6.8C209,263.3,207.3,263,205.7,263.2L205.7,263.2z M387,291.4
		c-1.2-0.5-2.4-1-3.7-1.4c-2.7-0.8-5.5,0.7-6.3,3.4c-0.1,0.3-0.2,0.6-0.2,0.9c-0.3,2.9,1.8,5.6,4.7,6c3,0.4,5.7-2.1,6-5.2
		C387.6,293.8,386.4,292.7,387,291.4c0.6-1.8,1-3.6-0.1-5.3c-0.4-2.7-0.5-5.5-2.2-7.9c1.6-0.9,1.4-2,0.3-3.2
		c-0.6,1.1-0.2,2.2-0.2,3.3c-0.5-0.1-0.9-0.2-1.4-0.3c-3.3-1-5.1-0.4-6.8,2s-0.8,4.4,0.6,6.4s4,2.3,6.7,1c1-0.5,1.8-1.4,3.1-1.4
		C385.2,287.8,385.8,289.7,387,291.4L387,291.4z M384.6,303.1c-1.1-0.4-2.2-0.7-3.3-0.9c-2.9-0.2-5.4,2-5.6,4.9c0,0.1,0,0.1,0,0.2
		c-0.2,2.8,1.9,5.3,4.7,5.5c0.2,0,0.3,0,0.5,0c3,0,5.4-2.4,5.5-5.4c0.1-1.9-1.6-2.9-1.8-4.5l1.8,0.7c0.5-1,1.2-2-0.2-3L384.6,303.1
		z M200.6,301.3c0-1.3,0.2-2.8-1.8-3.7c0.6,1.6-0.4,3.5,2,3.6c-0.4,1.2-1.1,2.4-1,3.8c0.3,2.3,2,4.3,4.2,4.9
		c2.4,0.4,4.7-0.8,5.8-2.9c1.1-2.2,0.6-4.3-1.6-6.1C205.6,298.6,203.1,299.6,200.6,301.3L200.6,301.3z M296.8,392.2
		c-0.1,1-0.1,2,0.1,3c0.3,2.2,2.2,3.9,4.4,4c2.4,0.4,4.7-0.9,5.6-3.1c1-2.3,0.2-4-1.4-5.8c-2.1-2.1-4.3-2.1-6.8-1c-2-1.5-4-1.3-6,0
		c-1.3-0.1-2.6-0.2-3.9-0.2c-2.6,0.2-4.6,2.1-4.9,4.7c-0.2,2.5,1.9,5.1,4.6,5.6c2.5,0.6,5.1-0.8,5.9-3.3c0.2-1.3,0.3-2.6,0.2-3.9
		L296.8,392.2z M357.8,354.2c-1.2,0.3-2,1-2,2.3c0.6,0.6,1.5,0.8,2.2,0.3c0.7-0.3,0.7-1,0.7-1.7c0.7,0.9,1.5,1.8,2.3,2.5
		c2.4,1.7,5.6,1.1,7.3-1.2c1.6-2.3,1.2-5.4-1-7.1c-2.4-2-5.3-1.6-7.3,1.1C359.1,351.6,358.4,352.9,357.8,354.2L357.8,354.2z
			M383.8,317.2c-0.7-0.7-1.4-1.3-2.2-1.9c-2.1-1.4-4.3-1.6-6.4,0c-1.8,1.3-2.6,3.6-2,5.7c0.9,2.9,3.9,4.5,6.7,3.6
		c1.7-0.5,3.1-1.9,3.6-3.6c0.4-1.3,0.4-2.6,0.1-3.9c1.7-1.1,2.3-3.2,1.5-5.1C383.3,313.8,383.6,315.6,383.8,317.2L383.8,317.2z
			M174.8,271.1c-0.4-1.8-1.8-3.3-3.5-3.8c0.9,1.5,1.8,3,3.4,3.9c0.1,0.5,0.2,1,0.4,1.4c9,14.9,15.6,31.1,19.5,48.1
		c0.3,1.5-0.2,3.2,1.1,4.9c2-1.8,1.2-3.9,0.9-5.7c-2.8-16.8-9.5-32-19-46.1C176.8,272.8,176.2,271.6,174.8,271.1L174.8,271.1z
			M491.7,274.3l-2.4-0.5c-1.3,2.3-1.4,4.7-1.6,7.2c-0.3,4.3-2,8.2-6.4,9.1c-5.8,1.1-8.8,4.8-11.6,9.3c-2.3,3.7-5.5,6.7-9.3,8.9
		c-10.6,6.3-22.3,9.3-34.1,12.1c-3.9,0.8-8,0.6-11.8-0.6c-2.4-0.5-4.9-0.9-7.4-1c-2.1-0.2-3.9,0.3-4.7,3.4
		c4.2-0.2,8.4,0.2,12.4,1.3c3.9,0.9,7.9,1,11.9,0.2c12.6-2.1,24.1-7.5,35.6-12.6c5.4-2.4,9.8-6.2,12.1-12c1.1-2.5,3.3-4.3,5.9-5
		c1.4-0.5,2.9-0.7,4.3-1.2c5.1-1.9,7.3-5.3,6.8-10.8c-0.3-2.6-0.3-5.3,0-7.9c1.6-0.4,3.3,0.5,5.1-0.4c0.4-4.2-1.8-7.9-2.7-11.9
		c-0.8-4-0.6-8.2,0.7-12.1c-2.5-1-3.2,0.3-4,1.9c-1.8,3.7-0.5,7.1,0.4,10.6C492.2,266.3,493.7,270.2,491.7,274.3z M358.3,308.9
		c2.8,3.7,5.7,3.6,9.1,1.7c1.2-0.7,2.8-0.5,4.4-0.8c0.7-3.1-0.1-6.4-2-9c-2.2-3.3-5.6-2.6-9.5-2.7c1.8-1.9,3.7-2.5,4.1-4.5
		c-6.8-1.4-13.8,0.1-19.4,4c-5.9,4-11.5,8.5-15.8,14.4c-3.2,4.4-6.5,8.8-9.8,13.2c-4.6,6.7-10,12.9-15.9,18.5
		c-9.2,8.3-19.7,12.7-32.4,11.3c-11.9-1.3-23.7-8-27.3-21.8c-1.6-6.1-2.8-12.3-3.5-18.6c-2-18.1,0.2-36.4,6.5-53.5
		c1.1-3,2.8-5.7,5.1-7.9c3.8-3.6,8.4-4.8,13.4-3.2s6.5,6,3.3,10.3c-1.5,1.8-2.4,3.9-2.6,6.2c3,1.7,4.8-1.3,7.3-1.3
		c1.2,3-0.6,5.8-0.7,8.7s-2.1,5.2-3.7,7.8c8.2,0.8,12-3.7,13.7-9.8c2.6-1.2,1.2,2.4,3.5,1.5c1.1-4.7,0.4-9.6-2-13.8
		c-8.8-14.9-25.9-18.4-41-6.6c-6.4,5.1-11.3,11.9-14.4,19.5c-4.9,11.7-5.7,23.9-4.5,36.3c2,21.3,11.6,38,31.4,47.6
		c9,4.6,19.4,5.5,29.2,2.7c11-3.1,20.1-9.4,27.6-18c6.1-7,11.9-14.4,17.7-21.7c1.9-2.6,4.3-4.7,7-6.3c4.5-2.5,11-1.8,14.6,1.3
		c1.2,1.1,1.3,3,3.1,3.7C358.5,316.2,359.4,313.2,358.3,308.9L358.3,308.9z M263.1,271.6c-0.5-3,0.8-5.7,1.8-8.5
		c1.3-3.4-0.3-7.1-3.7-8.5c-0.7-0.3-1.4-0.4-2.1-0.5c-3.9-0.2-7.6,2-9.2,5.6c-5.1,11-7.8,23-8.1,35.1c-0.2,8.5-0.5,16.9,0.8,25.4
		c1.1,7.3,2.9,14.3,6.5,20.7c0.4,0.7,0.4,2.5,2.3,2c-4.8-11-1.4-21.1,3.5-31c-2.1-9.8,0.7-16.1,7.7-17.3c2.9,7.7,5,8.4,12.5,3.9
		c3.7-2.2,7.6-4.1,11.6-5.7c10.1-3.9,20.9-5.5,31.7-4.7c2.4,0.1,4.9,0.7,7.3-0.5c0.9-9.8,1.2-19.7,0.9-29.6c-0.1-2-0.4-4-0.8-5.9
		c-0.1-1.7-1.4-3.2-3.1-3.5c-9.7-1.4-16.5,0-16.8,11.5c0,0.3,0,0.7,0,1c0,5.7-0.1,11.3-0.2,17c0,2.8,0.3,5.6-0.5,8.7
		c-6.2,0.8-12.1,2.6-18.4,4.3c0.8-3.7,0.9-7.6,0.3-11.4c-1.3,2.9-4.4,0.7-6,2.7c-2.6,3.3-6.5,4.5-10.4,5.5
		c-3.2,0.8-6.7,1.2-10.4-0.6c2.1-5,5.8-8.6,7-13.6C266.1,272.6,264.4,273.3,263.1,271.6z M332.7,289.9c-4.9,0-8.9,0.3-12.8,0
		c-16.5-1.7-33,2.6-46.6,12c-3.4,2.4-8,1.6-10.4-1.8c-0.1-0.2-0.3-0.4-0.4-0.6c-0.6-1-0.3-2.3-1.8-3c-2,1.5-3.2,3.8-3.3,6.3
		c-0.3,3.1,1.2,6,3.9,7.6c-3.2,4.3-6.2,8.4-7.1,13.4c-1.4,7.2-1.3,14.2,5,19.2c6.6,5.2,14.1,7.8,22.3,4.1
		c11.2-5.1,17.8-14.3,20.8-26c1.5-5.8,1.8-11.8,0.8-17.7c-3.4-0.1-6.2,0.9-9.3,2.3c0,4.5-0.1,9.2,0,13.8c0.3,8.7-3,15.9-9.4,21.7
		c-3.9,3.5-8.4,6-14,5.1c-8.1-1.2-12.2-9.2-8.9-17.7c4.2-10.6,12.2-17.7,21.6-23.4c4.2-2.4,8.7-4.2,13.4-5.2
		c10.7-2.5,21.5-1.2,32.3-1.4c1.8-0.2,3.5,0.9,4.2,2.5l8.4-6.6c0.1-0.6,0.2-1.1,0.3-1.7c0.3-13.2,0.5-26.3,0.8-39.5
		c0.1-6.2,3.5-9.9,9.7-10.4c1-0.1,2,0.4,2.8-0.5c0.5-1,0.4-2.2-0.3-3.1c-10.8,0.2-21.8-1.8-33-0.8c0,1.1,0,1.7,0,2.4
		c0,0.3,0.3,0.5,0.5,0.8c8.1,1.4,10.5,4.2,10.5,12.3c0,7.8,0,15.7-0.1,23.5L332.7,289.9z M259,240.2c3.5,0,7,0.1,10.4,0
		c4.5-0.1,9,0.9,13,3c7.8,4,12.6,10.1,12.3,19.4c-0.2,6.1,0.2,12.3-0.8,18.4c-0.3,1.7-0.6,3.6,0.4,5.5c3.3-0.4,6.6-1.1,9.8-2.1
		c0-3.5-0.1-7,0-10.5c0.2-7,0.1-14,0.7-20.9c0.6-7.6,3.1-10.1,10.1-11.2c0.3,0,0.5-0.4,0.8-0.6c0.6-1.1,0.2-2.4-0.8-3.1
		c-18.4-1.4-37.3-0.4-55.8-1.9C258,237.7,258.2,238.6,259,240.2z M287.7,307.8c-5.1,1.9-12,6.8-16.3,11.4c-2.8,2.8-5.3,6-7.2,9.5
		c-1.7,3.3-2.7,6.9-0.7,10.5c2.7,4.8,8.8,6.5,13.6,3.8c1.4-0.8,2.5-1.8,3.4-3.1C287,330.2,287.9,319.2,287.7,307.8z M341.1,317.6
		c-1.6,0-2.4,1.2-3.4,1.9c-4.1,2.7-6.7,6.3-6.1,11.7c0.3,2.6-0.4,5.4,0,8c0.8,6.1-2.7,9.7-7.3,12.5c-4.1,2.6-8.7,4.1-13.2,5.8
		c-1.4,0.5-3.4,0.3-4.4,3.1c15.6-3.6,30.2-10.7,45.8-8.2c1.2-1.5,1.4-2.4,1.2-2.7c-1.4-1.6-2.4-0.7-3.4-0.8
		c-7.4-1.1-9.8-3-9.2-10.5C341.5,331.5,341.1,324.7,341.1,317.6L341.1,317.6z M493.8,276.9c0,2.5,0,4.6,0,6.8
		c0.1,4.7-2.1,7.9-6.1,10c-2,0.9-4,1.7-6,2.4c-2.6,1-4.8,2.4-5.9,5c-2.5,5.6-7,9.2-12.3,11.9c-3.8,2-7.9,3.5-11.8,5.2
		c-7.7,3.4-15.8,5.9-24.1,7.5c-4.9,1.1-10,0.8-14.8-0.6c-2.2-0.6-4.6-0.8-6.9-0.7c-1.9-0.2-3.6,1-4.1,2.9c3.1-1,3.1-1,6.9,0.1
		c4.1,1.4,8.5,1.9,12.8,1.5c8.6-1,17.2-1.9,25.4-4.8c10.2-3.6,20.9-7.1,28-15.5c5-5.9,10.1-10.9,17.2-14c4.5-2,6.2-6.2,5.7-11.2
		c-0.2-2.3-0.1-4.6-0.2-7c0-0.3-0.3-0.5-0.5-0.8C495.7,275.1,495,276.1,493.8,276.9L493.8,276.9z M357.8,220.7
		c-0.9,0.9-1.8,1.8-2.7,2.7c-1.9,1.9-1.8,5,0.1,6.9c0.1,0.1,0.2,0.1,0.2,0.2c1.9,2,5,2.2,7.1,0.3c0,0,0.1-0.1,0.1-0.1
		c2.4-2,2.6-4.3,0.4-6.9c-4.3-5.2-9-9.9-14.2-14.2c-0.2-0.1-0.6,0-1.7,0l1.8,3.4c-3.5,2.9-4.2,5.2-2.3,7.7c2.2,2.9,5.1,3.1,8.5,0.5
		C356,220.4,356.7,219.9,357.8,220.7L357.8,220.7z M500.8,249.2c-4.2,2.8-5.6,6.6-4.7,11.2c1.1,4.9,3.4,9.5,3,14.5
		c1,0.4,2.1,0.5,3.2,0.1c0.9-2.8,0.9-5.8,0-8.6C500.1,260.9,499.6,254.9,500.8,249.2z M375.5,326.3c-3-0.4-5.7,1.7-6.1,4.7
		s1.7,5.7,4.7,6.1c3,0.4,5.7-1.7,6.1-4.7c0-0.1,0-0.1,0-0.2C380.5,329.3,378.4,326.7,375.5,326.3L375.5,326.3z M384.5,271.3
		c0.1-2.7-2.4-5.7-5-6c-3-0.3-5.6,1.9-5.8,4.9c0,0,0,0,0,0c0.1,2.9,2.3,5.4,5.2,5.7C381.7,276.1,384.4,273.8,384.5,271.3
		L384.5,271.3z M222.2,240.8c2.4,0.1,5.2-2.3,5.4-4.9c0.1-2.9-2.1-5.4-5-5.9c-2.6-0.3-5.4,2.3-5.6,5.1
		C217,238.1,219.3,240.6,222.2,240.8z M216.2,251.8c2.4,0.1,4.7-2.7,4.8-5.9c0.1-2.8-2-4.9-5-4.9c-2.3,0-4.9,2.6-5,5.1
		S213.7,251.7,216.2,251.8L216.2,251.8z M385.6,321.4c-1.4,2.3-0.5,3.3,1.1,3.9c4.3,1.5,8.8,2.1,13.3,1.7c0.5-1.4,0.8-2.3,0.1-3.5
		C395.4,323.1,390.5,323.1,385.6,321.4L385.6,321.4z M429.4,210.4c-1,2.2-0.8,4.7,0.6,6.6c4.6-4.5,10.5-5.9,16.6-7.4
		c-0.7-1.9-2-3.6-3.7-4.7C439,211.2,436.9,212.1,429.4,210.4L429.4,210.4z M401.4,329.3c-6.1,0.4-11.7-1.2-17.1-2.4
		c-0.7,0.8-0.9,2-0.5,3c5.8,1.4,11.8,2.7,18.3,2.2C401.9,331,401.8,330.4,401.4,329.3L401.4,329.3z M499.4,238.4
		c1.7,3.7,2.9,6.9,3.1,10.3c1.2,0.4,2,1.1,3,0.4C504.7,241.1,503.7,239.1,499.4,238.4L499.4,238.4z M497,249.2c4.3-2,1.7-4.8,1.3-7
		c-0.3-1.9-1.2-4-4.3-2.6C496,242.3,495.8,245.7,497,249.2z M158.8,210.4c3.8-3.1,3.8-3.2,2.6-7.2c-1.8,2.6-4.6,2.6-7.7,2.5
		C155.6,207.8,157.8,208.3,158.8,210.4z M286.3,259.7c-1.3-5.7-5.4-9.8-10.4-10.9C280.1,251.8,283.6,255.5,286.3,259.7z
			M487.4,233.7c1.9,1,0.2,5.4,4.8,4.4C490.8,236,491.3,233,487.4,233.7L487.4,233.7z M492.6,232.8c1.3,2.5,1.3,4.7,3.9,5.4
		C496.5,235.6,495.8,234,492.6,232.8L492.6,232.8z M451.1,200.9c-1-1.4-2.1-1.9-3.7-1.2C448.4,200.5,449.3,201.2,451.1,200.9
		L451.1,200.9z M381.9,261.7c-0.5,1.4-2.4,3,1.7,3.4C382.5,263.9,383.1,262.7,381.9,261.7L381.9,261.7z M124,234.7
		c0.5,0.3,1.2,0.3,1.7,0C125.1,234.4,124.5,234.4,124,234.7z M222.3,227.6c-0.7,0-1.2,0.4-1.2,1.1c0,0.4,0.3,0.7,0.7,0.6
		c0.1,0,0.2,0,0.3-0.1c0.5-0.3,0.7-0.9,0.4-1.3C222.4,227.7,222.3,227.6,222.3,227.6z M378.5,253.2c0.2-1.1,0.6-1.8-0.5-2.1
		C377.7,251.8,377.7,252.4,378.5,253.2z M210.3,287.7c-0.5,0.5-0.7,0.9-0.1,1.4C210.8,288.7,210.7,288.2,210.3,287.7z M142,237.7
		l0.2,0.1v-0.2L142,237.7z"/>
	<path class="seal" d="M462.7,347.2c1.8,0.3,2.2-1.9,4-1.9c1.7,1,1.3,2.8,1.1,4.4c-1.3,10.2-2.3,20.5-5.4,30.4c-1.2,3.7-1,7.5-1.6,11.2
		c4.1,5.1,3.6,7.2-2.6,11.3c-0.9,1.7-0.4,3.6-0.5,5.4c-0.2,4.4-1.1,5.3-5.3,6.7c-3.2,1-6.6,0.9-9.7-0.1c0.1-3.2,2.9-3.9,4.4-6.1
		c-0.1-6.6,1.4-13.4,2.5-20.3c1.7-11,0.5-21.9-0.7-32.8c-0.2-2.3-0.6-4.5-0.9-6.9c2.4-0.6,4,0.9,5.9,1.2c3.4,0.6,6.5,0.3,8.9-2.6
		L462.7,347.2z"/>
	<path class="seal" d="M521.7,255.2c0.4-1.8-1.9-2.2-1.8-4.2c4.9-1.4,10-1.3,15.1-1.5c6.5-0.2,12.9-0.7,19.4-1.5c3.5-0.3,6.8-1.5,9.8-3.3
		c4.3-2.5,8.8-4.7,13.4-6.6c1.2-0.5,2.5-0.9,3.8-1.1c1.7-0.4,3.4,0.5,4.2,2c1,1.5,0.7,3.4-0.6,4.6c-4.7,4.1-8.9,9.1-14.7,11.9
		c-2,1-4.2,2.3-6.6,0.9c-1-0.6-1.9,0.2-2.8,0.4c-10,2.1-19.3,6.2-29,9.2c-2.4,0.7-4.7,1.8-7.4,0.1c0.2-3.9,0.7-8.1-3-11.1
		L521.7,255.2z"/>
	<path class="seal" d="M76.9,204.4c-0.5-0.6-1.7-0.3-2-1.7c3.4-1.5,6.6-2.8,10.7-2.1c5.4,0.9,10.8,1.5,16.1,3.2c3.5,1.1,7.2,1.3,10.8,0.6
		c6.6-1.2,12.9-0.8,18.7,3c2.4,1.6,5.2,2.2,8,2.7c0.8,0.2,1.7,0.2,2.5,0.4c6.9,1.6,9,5.2,7,11.8l0.1-0.1c-4.2,0.7-7.9-0.9-11.5-2.6
		c-3.9-1.9-8.1-3.1-12.4-3.3c-6.7-0.3-13-2.7-19.2-5.2c-4-1.6-7.8-3-12.4-1.1c-3.2,1.3-7,0.3-10.9-0.1c1.4-3.6,4.8-1.9,7.3-3.3
		c-4.7-2.4-9-1.6-13-0.2c-0.7-1-0.1-1.5,0-2.1l0.4-0.6C76.8,203.8,76.7,204.1,76.9,204.4z"/>
	<path class="seal" d="M322.3,43.9c1.5-2.3,3.5-0.9,4.5-2.3c1.9-4.3,2.2-9,3.2-13.5s1.7-9.2,2.8-13.7c0.8-3.4,1.1-6.3-3-7.7
		c1-1.8,2.3-0.9,3.2-0.7c7,1.3,14.1,2.6,21.1,4c2.1,0.4,4.2,1.1,6.1,2.1c4.1,2.2,6.5,5.6,6.7,10.4c0.7,15.5-12.4,27-25.7,25
		C335,46.6,328.9,45.2,322.3,43.9z M333.6,40.9c9.2,8.2,18.6,5.6,23.2-1.7c3.5-5.4,4.6-11.9,3.2-18.2c-2-8.7-12.2-13.3-20.7-9.1
		C337.4,21.4,335.5,31.1,333.6,40.9z"/>
	<path class="seal" d="M536.2,201.1c-7.8-0.9-16.1-8.5-17.3-15.5c-1.1-5.5,0.6-11.2,4.6-15.2c8.7-8.7,22.8-8.8,31.6-0.1c1.4,1.4,2.6,2.9,3.6,4.6
		c2.3,4,3.6,8.4,3.9,12.9c-2.5,1.8-5.2,3.2-8.1,4c-1.2-1.2-0.8-1.9,0.1-2.7c4.1-3.6,4.2-8.2,2.5-12.8c-1.5-4.7-5.7-8.2-10.6-8.8
		c-7.6-1.1-16.6,3.5-20.2,10.2c-3,5.8-2,12.5,2.7,17.5C531.1,197.5,533.7,199.2,536.2,201.1z"/>
	<path class="seal" d="M149.9,87.5c-2.1,2.6-4.7,4.9-7.6,6.7c-4.4-6.8-9.4-13.1-15-19c-3.3,0.2-4.4,2.2-4.7,4.7c-0.9,7.1,1.8,13,6.5,18.1
		c1.9,2.1,4.2,1.1,6.6,0.7c-3,3.7-6.8,6.7-11,8.9c3.1-4.1,0.9-6.8-1.6-9.7c-3.3-3.7-6-8-9.3-11.2c-2.2-0.9-2.2,2.1-4.3,1.5
		c1-3.1,2.5-6,4.6-8.6c2.6,1.6,3.6,4.5,6.2,6.7c0.1-2.1,0.2-3.6,0.3-5.2c0-2,0.4-4,1.1-5.9c2.2-5.7,6.5-6.6,10.6-2
		c2.9,3.2,5.5,6.6,8.2,10C142.9,86.4,145,89.6,149.9,87.5z"/>
	<path class="seal" d="M235.1,20.1c2,2.9,1.5,5.9,2.4,9c1.6-1.3,2-3,2.8-4.2c1.5-2.2,2.9-4.5,5.2-6c4-2.6,7.6-1.5,8.9,3.1
		c1,3.7,1.5,7.5,2.3,11.2c0.4,1.4,0.6,2.9,0.8,4.4c0.2,3.5,1.7,5.7,6.5,5.6c-3.9,2.9-7.6,1.9-10.6,3.2c-0.7-8.3-2.2-16.6-4.5-24.6
		c-3.6-0.3-5.2,1-6.4,2.9c-3.8,5.8-4.2,12.1-2.5,18.6c0.8,2.9,3.4,2.6,6.7,3.5c-5.3,2.3-10,2.4-14.7,3.3c0.5-2.6,3.5-2.5,3.6-4.9
		c-0.1-2-0.4-4-0.9-5.9c-1.1-4.7-1.1-9.6-3-13.5c-1.7-1.4-2.8,0.8-4.3-0.4C229.3,23,232.2,21.8,235.1,20.1z"/>
	<path class="seal" d="M54.3,169.2c-0.8-2.3-1.5-4.1-2.2-6c-0.8-2.2-1-4.6-0.7-6.9c0.7-4.2,3.7-6.1,7.6-4.3c4.4,2,8.6,4.4,12.8,6.8
		c3.2,1.8,6.3,3.9,9.8,0.1c-0.8,3.7-2.7,6.5-4.3,9.1c-6.7-4.7-13.8-8-20.7-11.7c-3.2,2.5-3.8,4.3-2.4,7.8
		c2.5,6.1,7.5,10.8,13.7,12.9c2.4,0.1,3.2-1.9,4.8-2.4c-0.2,3-2.4,7.6-6.7,13.1c1.7-6.3-2.4-7.8-6-9.6c-4-2-7.7-4.5-11.7-6
		c-2,0.2-1.8,2.4-3.6,3.3c-0.3-3.3,0.1-6.6,1.1-9.7C49,165.8,50.9,168.2,54.3,169.2z"/>
	<path class="seal" d="M356.9,533.6l10.3-2.5c0.1,2-1.9,2.2-2.1,4.2c1.5,6.3,3.2,13.3,4.8,20.2c0.5,2.2,1.3,4.3,5.3,3.7c-4.1,2.7-7.8,2.4-12,4.3
		c4.9-6.1,0.4-10.9,0.2-16.4l-14,3.4c2.2,4.9,0.3,11.1,7.1,14.2l-10.8,2.6c2.5-2.4,2-5,1.3-7.8c-1.5-5.5-2.8-11-4-16.5
		c-0.5-2.3-1.4-4.1-4.2-4.3c3.2-2.1,6.9-2.3,10.5-3.3c0.3,2.2-2.1,1.8-2.3,4.2c0.5,2.2,1.3,5.4,2.1,8.9l13.8-3.2
		C361,541.3,363.1,535.8,356.9,533.6z"/>
	<path class="seal" d="M409.9,71.1c4.4-5.8,7-12.7,10.1-19.2c1.2-2.5-0.5-4.5-3.4-4.5c-2.4,0-4.5,1.1-6.4,2.3c-3.4,2.1-6.2,5.2-8,8.8
		c-2.2,4-2,5.2,0.9,8.7c-2.6,0.1-6.5-1.5-12.8-5.8c6.2,0.8,7.3-3.5,9-7c1.9-4,4.3-7.8,5.5-11.6c-0.3-2.1-2.2-2-3-3.6
		c3.2-0.3,6.4-0.1,9.5,0.6c-0.3,3.1-2.4,5.2-3.2,8c1.8,0.9,2.8-0.6,4.1-1.1c2.7-1,5.3-2,8.2-1.7c4.5,0.5,6.5,3.5,4.7,7.6
		c-2.1,4.9-4.5,9.6-6.9,14.3c-1.5,2.9-2.2,5.6,1.6,7.8C416.7,75.2,414.6,74.3,409.9,71.1z"/>
	<path class="seal" d="M46.8,323.4c-2.3-0.4-1.9-2.2-3.8-3c-6.7-0.2-14.1,1.2-21.5,1.2c-2.2,0-3.5,1.4-4.8,3.3c-0.3-3.4-0.6-6.8-1-11.5
		c2.4,3.4,4.6,4.3,7.6,3.7c2.7-0.4,5.3-0.6,8-0.7c0.4-4.8-0.7-9.2-0.8-13.9c-3.8,0.2-7.2,0.6-10.6,0.7c-2.4,0-2.8,2-4,3.8
		c-1.2-3.8-0.9-7.4-1-11.2c1.9,2.6,4.3,3,7.3,2.7c5.5-0.6,11-0.7,16.4-1.1c3.4-0.2,3.4-0.3,5.8-3.6c0.5,3.9,0.8,7.3,1.3,10.8
		c-3.8-4.7-8.4-1.8-13-2.3c0.2,5-0.1,9.4,0.7,14.1c4.3-0.8,9.1,1.6,12.4-4.5C46.2,316.2,46.5,319.7,46.8,323.4z"/>
	<path class="seal" d="M505.9,157.7c2.1,3,3.4,6.3,7,7.9c3.2,1.4,6.4,0,9.7,0.5c-3.2,3.3-7.6,3.4-11.2,5.6c-2.8-8.2-8.7-14.3-12.2-21.8
		c0.6-0.7,1.2-0.6,1.7,0c1.6,1.9,3.4,1.8,5.3,0.6c7.8-4.9,15.5-9.8,23.3-14.6c2.8-1.7,2.1-4,2-6.6c3.4,3.8,6.1,8.2,8.1,12.9
		c-3.7-3.8-6.6-1.5-9.7,0.4C522,147.6,513.9,152.6,505.9,157.7z"/>
	<path class="seal" d="M43.7,371.8c2.1,1.2,3.8,2.2,5.5,3.3c1.9,1.3,3.1,3,2.7,5.5c-0.4,2.3-2.3,2.7-4,3.3c-3.3,1.3-6.6,2.3-10,3.1
		c-2.8,0.6-4.4,2-4.3,5.6c-2.3-2.7-2.4-5.3-3-7.8c6.2-1.1,12.2-3,17.9-5.6c-1.2-4.5-3-5.7-8.1-5.9c-6.2-0.2-9.4,1.5-11.1,6.3
		c-1.8-2.1-1.6-4.7-2.6-6.9c6.3-1.8,12.6-2.8,18.1-6.1c-1.9-4.3-4.4-5.7-9.9-5.2c-3.9,0.3-8.2,0.3-9.9,5.7c-1-3-1.9-6.1-3.3-10.5
		c4.2,4.2,7.5,2.1,11,1.1c2.5-0.8,5.1-1.5,6.9-2.1c1.8-1.4,0.3-2.7,1-4.1c1.8,1.5,3.3,3.4,4.4,5.5c-1,2.1-3.4,1.3-4.9,2.8
		c1,1.2,2.7,1.4,4,2.2C49.4,365,49.4,368.5,43.7,371.8z"/>
	<path class="seal" d="M424.3,539.6l-8.8,4.9c-0.3-2,1.7-2.9,1.1-4.4c-0.5-1.2-1.1-2.4-1.8-3.6c-1.8-3.2-3.6-6.4-5-8.9c-1.7-1.2-2.7,0.8-4.1-0.5
		l4.3-5.2c2.2,0.9,2.3,3,3.9,5c1.2-4.5,1.5-9.2,6.3-10.4c2.4,0.3,3.2,2.2,4.8,3.8c0.6-2,1-3.9,1.8-5.6c0.9-2.2,2.2-4.2,4.9-4.3
		c2.4-0.1,3.3,1.9,4.3,3.6c1.9,3.1,3.7,6.3,5.5,9.5c1.1,2.1,2.4,3.5,5.3,2.3c-1.7,2.6-4.2,3.3-6.3,4.5c-2.8-5.8-5.6-11.5-9.6-16.4
		c-3.9,2.5-4.8,5-3.8,9.6c1.3,6.1,3.4,8.4,8.3,9.1c-1.4,2.3-4.1,2.7-6.3,4.5c-1-3.1-2.5-6.1-4.4-8.8c-1.7-2.7-2.5-6.2-5.6-7.9
		c-3.6,3.1-4.3,6.8-2.3,12.1C418.7,537.6,420.1,538.8,424.3,539.6z"/>
	<path class="seal" d="M167.5,78.2c-2.8-0.7-3.1-3.1-4.3-4.6c-1.9,1.1-1.2,3.3-2,4.8s-1.1,3.1-2.2,4.4c-1.7,2-3.5,3.5-6.4,2.6
		c-2.8-0.8-4.8-3.3-4.7-6.3c0.1-2.8,0.8-5.6,2.2-8.1c1.6-3.3,3.5-6.4,5.4-9.7c-0.4-0.6-0.8-1.4-1.2-2c-1.1-1.5-2.2-3.1-4.4-2.6
		c-2.2,0.5-3.8,2.4-4,4.6c-0.5,2.3-0.3,4.7,0.4,6.9c0.4,1,0.7,1.9-0.8,2.7c-2.1-1.3-2.6-3.9-4.2-5.7c1.5-4.2,4.2-7.8,7.7-10.4
		c4.2-3,6.3-2.7,9,1.5c3,4.6,5.8,9.3,8.7,13.9c0.6,1,1,2.1,2.3,2.4c1.7-0.7,1.5-2.8,3.2-3.6C172,72.8,171.4,76.3,167.5,78.2z
			M157.1,64.1c-3.3,2.5-5.1,6-6.1,9.9c-0.8,2.5,0.5,5.2,2.9,6.1c2.3,0.7,4.7-0.7,5.8-3.4c0.7-1.7,0.9-3.6,0.6-5.4
		C159.7,68.9,159.1,66.3,157.1,64.1L157.1,64.1z"/>
	<path class="seal" d="M512.7,103.6c2.9,3.6,5.8,7.2,8.7,10.8c0.1,0.1-0.1,0.6-0.2,0.9c-1.8,0.8-2.3-1.8-4.9-1.4c-8.8,6-17.4,13.7-26.8,20.9
		c2.4,3.1,4.4,6,7.9,7.1c3.3,1.1,6.4-0.8,10-1.3c-1.8,3-3.1,3.9-11.1,7.2c-3.2-7.9-10.2-13-14.4-20.5c2.1-0.5,2.9,1.5,4.6,1.3
		c1.4-0.4,2.7-1.1,3.7-2.1c6.1-4.9,12.3-9.7,18.4-14.6C512.7,108.8,512.7,108.8,512.7,103.6z"/>
	<path class="seal" d="M386.3,39.9c1.5-2.8,2.7-5.3,0.3-7.7c-1.7-1.7-5.4-1.1-8.2,1.2c-0.9,0.8-1.6,1.6-2.4,2.5c-0.7,0.8-0.9,2.2-2.4,2.2
		c-0.6-2.9-0.6-2.9,1.7-7.3c3.9-1,7.8-1.9,12-0.6c5.4,1.6,6.5,3.3,4.7,8.6s-3.6,10.6-5.5,16c-0.3,0.8-0.9,1.5-0.4,2.3
		c1.7,1.6,3.5-0.7,5.6,0.4c-2.3,2.2-5.5,3.3-8.6,2.8c-1.4,0-2.5-1.1-2.5-2.4c0-0.2,0-0.4,0.1-0.7c0.2-1.3,0.7-2.5,1.2-4.6
		c-2.7,1.5-5.5,2.5-8.5,3.2c-3.5,0.7-6.3-0.5-7.5-3.3c-1.2-2.9-0.1-6.2,2.5-7.9c4.1-2.9,8.9-3.6,13.6-4.4
		C383.4,40,384.7,40,386.3,39.9z M385.9,42.6c-4.4-0.5-8.1-0.5-11.6,1.5c-3,1.8-4.2,4.2-3.1,6.4c1.2,2.4,4.4,3.2,7.4,1.7
		C382.4,50.2,384.3,46.9,385.9,42.6L385.9,42.6z"/>
	<path class="seal" d="M281.3,37.3c-3,2.4-4.7,5.1-7.5,6.7c-3.2,1.7-5.2,1.7-7.3-0.3c-2.3-2.1-2.7-5.6-1-8.2c1.7-3,4.3-5,7-7
		c2.4-1.7,5-3.2,7.7-4.9c0-0.6,0-1.3,0-1.9c-0.2-2-0.3-4.3-2.7-4.9s-4.5,0.7-6.1,2.6c-1.2,1.6-2.1,3.4-2.5,5.4
		c-0.2,0.9,0,2-1.7,2.5c-1.4-2.2-0.8-4.6-1-7c3.3-3.1,7.5-5.1,12-5.7c4.5-0.5,6.1,0.9,6.5,5.3c0.5,5.1,1,10.2,1.1,15.4
		c0,1.6-0.3,3.4,1.1,4.7c2,0.5,2.7-1.8,4.3-2c-0.7,2.7-4,6-6.4,6.3c-1.3,0.3-2.7-0.5-3-1.8c0-0.1,0-0.1,0-0.2
		C281.6,40.6,281.4,38.9,281.3,37.3z M280.4,26.6c-5.2,1.8-9,4.4-10.5,7.1c-1.1,1.9-1.5,3.8,0.2,5.5s3.8,1.7,5.9,0.6
		c1.5-0.8,2.6-2.1,3.2-3.7C280.8,33.2,281.2,29.8,280.4,26.6z"/>
	<path class="seal" d="M518.4,457.8c0.9-2.7-0.2-4.3-2.2-5.6c-6.1-4-12.2-8-17.4-11.3c-2.5-0.9-2.8,1.8-5,0.6c4.5-6.2,7.7-13.1,12.9-18.7
		c3.3-3.5,7-3.9,11.4-1.9c9.6,4.2,14.2,16.1,8.6,25.4c-2.3,3.8-4.8,7.5-7.2,11.3L518.4,457.8z M520,449.2
		c9.2-4.7,10.3-13.9,2.5-20.1c-2.6-2.1-5.6-3.6-8.8-4.4c-2.3-0.6-4.7-0.2-6.7,1.2c-3.6,2.4-5.9,6.4-6.3,10.7L520,449.2z"/>
	<path class="seal" d="M226.8,41.2c0.1,7.1-5.1,13.9-11.7,15.6c-3.6,1.1-7.5,0.3-10.3-2.1c-8.9-7.3-6.4-23.2,4.3-27.4c6.7-2.7,13.2,0,16.1,6.6
		C226.3,36.3,226.8,38.7,226.8,41.2z M202.6,38c-0.2,6.3,3.5,12.1,9.4,14.5c6.1,2.4,11.7-1.4,11.6-7.9c0-5.5-4.2-11.7-9.3-13.8
		C208.6,28.3,202.9,31.8,202.6,38L202.6,38z"/>
	<path class="seal" d="M25.3,187.7c1.3-4.8,2.8-9.3,5.8-13.5c-0.5,4.6,2.4,6,5.8,7.3c6.6,2.6,13.1,5.5,19.7,8.3c5.1,2.2,5.1,2.1,10.3-1.7
		c-1.7,5.1-3.8,10.1-6.2,14.9c-2-1.5,0.4-3.5-0.6-4.3c-1.8-2-3.7-2.5-5.5-3.3c-6.8-2.9-13.6-5.8-20.5-8.7
		C29.4,184.6,29.1,184.7,25.3,187.7z"/>
	<path class="seal" d="M93.7,115.2c-3.9,4.9-7.8,9.7-11.8,14.6c3.5,4.2,8.7,5.9,13.1,4.4s5.9-4.8,6.1-13.9c0.5-0.3,1.1-0.2,1.2,0.2
		c1.3,4,1.4,8.2,0.3,12.2c-1.5,4.6-5.8,7.6-10.6,7.5c-10.4,0-17-11-15.5-19.2C77.9,113.1,86.6,108.8,93.7,115.2z M80.4,128.4
		c3.1-3.2,6-6.6,8.5-10.2c-4.3-2.6-7.2-2.5-9.5,0.2S77.4,124.4,80.4,128.4z"/>
	<path class="seal" d="M466.8,99.7c-4.6,3.1-12,3-16.1,0c-3.8-2.8-5.3-8.4-3.6-13.6c2.4-7.4,11-12.4,18.6-11c8.2,1.5,10.9,9.2,5.9,17.1
		c-5.5-3.4-9.9-8.1-15.3-11.9c-3.5,4-5.9,8.2-3.7,13.6C455.2,100.2,460.9,99.9,466.8,99.7z M468.3,87.7c2.6-4.2,2.5-7.1-0.2-9.5
		c-2.9-2.6-5.7-2.4-10.2,1.1L468.3,87.7z"/>
	<path class="seal" d="M180.4,547.1c-3.6-1.1-6.8-2.1-9.7-4.5c3.7,0.5,4.7-2,5.8-4.4c2.8-6.5,5.7-13.1,8.2-18.8c0.3-2.3-2-2.1-1.5-3.7h7.9
		c-3.3,5.3-5.1,10.8-7.8,16.1c1.6,0.4,2.4-1,3.5-1.3c1.6-0.5,3-1.3,4.8-1.3c4.6-0.2,6.6,2.2,5.1,6.6c-1.1,3.1-2.6,6.1-4,9.1
		c-0.6,1.4-1.2,2.7-1.7,3.8c-0.1,1.8,1.7,2.3,2,4.2c-2.9-0.4-5-1.8-7.1-2.9c2.8-5.9,6.1-11.4,7.4-17.7c-3.2-1.6-5.5-0.7-7.6,0.7
		c-2.6,1.6-4.6,3.9-6,6.6C178.3,542.1,177.5,544.6,180.4,547.1z"/>
	<path class="seal" d="M114.7,467.3c-0.8-1.2-1.3-1.9-2-2.9c3-0.1,5.1,1.8,8.1,2.2l-13.6,13.7c4.1-1.1,7.2-1.5,10.2-0.3c3.8,1.5,4.8,4.1,2.2,7.3
		c-2.2,2.7-4.8,5.1-7.2,7.7c-3,3.2-3,3.2-2.2,7.5c-2.6-1.3-4-3.5-5.9-5.2c4.8-4.5,10.2-8.4,12.9-14.5c-6.1-3.2-15.3,0.2-17.4,5.7
		c-0.7,1.8,0.9,2.7,0.8,4.7c-3.3-2-5.5-4.7-8.4-7.6c2.3-0.2,4.2,1.1,5.8-0.8C103.4,478.9,109,473.2,114.7,467.3z"/>
	<path class="seal" d="M508,471.3c-1.7,3.6-4,4.8-5.5,7c-4.1-5.1-9.1-8.8-13.5-13c-3.7,2.7-4.1,5.1-2,10c2.4,5.6,6.2,8.1,11.7,7.3l-7.2,7.5
		c0.8-3.5-1.5-5.3-3.7-7.2c-5.3-4.7-10.5-9.6-15.5-14.3c-1.4,0-1.4,1.8-3,1.5c0.1-2.6,1.5-4.8,2.4-7.5c4.1,4.2,8.4,8.2,12.9,12
		c0.1-2.9-0.5-5.3,0-7.8c1-5.1,4.1-6.4,8-3.2c2.6,2.1,5,4.4,7.4,6.7C502,472.1,503.9,474.3,508,471.3z"/>
	<path class="seal" d="M132.5,383c1,7.4,1.5,14.5,0.3,21.6c-0.7,4.3-1.5,5.3-6,7c-2.3-0.6-3-2.2-3-4.4c0.1-2,0-4,0.1-6c0.2-2.2-0.8-4.3-2.6-5.6
		c-5.5-4.5-5.5-7.7,0.2-12.5C125,386.2,128.7,384.8,132.5,383z M124.7,396.2c0-0.7-0.2-1.2-1.1-0.9c-0.6-3.2-1.8-6.2-3.6-8.9
		c-2,4.6,0.6,6.8,3.7,8.8C123.9,395.8,124.1,396.3,124.7,396.2c-0.1,1.1,0.3,2.2,1.1,3c0.5,3.4-0.7,7,0.8,10.5
		c3.3-1.9,5.5-5.7,4.5-7.1c-0.8-0.2-1.5,0.9-2.5,0.1c-1.4-0.6-1-3-2.9-3.4C125.5,398.2,126,397,124.7,396.2z"/>
	<path class="seal" d="M293.7,3.8L303.8,0c-1.3,2.6-0.9,5.1-0.9,7.4c-0.2,9.2-0.2,18.3-0.5,27.5c-0.1,3.4,0.1,6.3,4.3,7.6
		c-4.8,1.1-9.2,0.7-13.7,0.7c0.1-0.8,0-1.3,0.1-1.4c3.8-1,4.5-3.7,4.5-7.2c0-8,0.2-16,0.4-24c0-1.6,0.4-3.3-0.7-5.1
		C296.7,4.4,294.3,6.1,293.7,3.8z"/>
	<path class="seal" d="M119.5,112.9c-1.5,3-6.7,8.5-10.5,11c0.9-5.1,0.9-5.1-3.3-9.2c-3.6-3.5-6.8-7.3-10.4-10c-2.2-0.1-2.1,2-3.3,2.3
		c-1.4-0.7,0.1-4.8,3.3-9c2.7,0.8,3.6,3.8,6.2,4.8c-0.7-10.9-0.7-10.9,3.4-14.1c2.7,1.8,4.9,4.2,6.7,6.8c-2.6,1.8-3.7-1.5-5.6-1.2
		c-3.1,0.9-3.4,3.3-2.8,5.9c1.3,5.4,4.4,10.1,8.7,13.6c1.5,1.5,3.9,1.6,5.4,0.2C117.8,113.6,118.3,112.5,119.5,112.9z"/>
	<path class="seal" d="M16.7,228.3c4.1,0.8,6.8,3.7,10,6.4c-2.8,2.9-6,5.6-2.8,10.2c-10.4-2.1-18-7.8-23.8-15.9c2.9-5.3,3.9-5.9,9.1-4.4
		c1.9,0.6,4.4,0.4,5.6,2.6l0.1-0.1c-3.6,0.7-6.7-1.5-9.9-1.8c-2.6,3.3-2.7,3.9-0.3,6.3c1.7,1.7,3.6,3.2,5.7,5
		c-1-5.8,0.6-7.5,6.6-7.6c0,0.4,0,0.5,0.2,0.3l-0.4-0.2l0.1-1L16.7,228.3z"/>
	<path class="seal" d="M444.1,82.2c-5,4.3-13,4.1-17.1,0.1c-4.4-4.4-4.5-11.1-0.2-16.8c7.6-10,19.7-9.5,27,1.3c-1.1,2.4-2.2,4.8-4.5,6.6
		c-1.9-1.2-0.8-2.5-0.6-3.7c0.9-3-0.3-6.2-2.9-7.9c-2.4-2-5.7-2.2-8.4-0.7c-3.9,1.9-6.8,5.5-7.9,9.7c-1.9,7.7,2.7,12.8,10.6,11.8
		L444.1,82.2z"/>
	<path class="seal" d="M558.3,382.8l-2.7,6.6c-5.5-3-11.3-4.7-16.7-7.1c-3,3-2.8,5.3,0.8,9.3c4.3,4.9,9.2,6.1,13.1,3.3
		c-0.2,3.1-1.3,6.2-3.8,10.2c0.1-3.8-1.9-5.2-4.8-6c-3.6-1.1-7.1-2.7-10.1-3.8c-1.7,0.4-1,2.1-2.7,2.3c-0.9-2.3-0.6-4.6-0.1-7
		c2.2-0.2,3.7,1.5,5.9,1.5c0-1.7-1.1-2.8-1.6-4.1c-0.8-1.6-1.2-3.5-1.1-5.3c0.3-3.2,2.4-4.8,5.5-3.8c3.6,1.1,7.1,2.7,10.7,4
		c2.4,0.9,5,2.8,7-2L558.3,382.8z"/>
	<path class="seal" d="M169.6,535.6c-4.1,1.3-8.5,1.5-12.7,0.5c-7.4-1.8-11.4-10-8.7-17.5c3.9-10.8,16.8-15.2,25.7-8.7c2,1.5,4.1,2.8,5.7,5.2
		c-0.8,2.2-1.9,4.2-3.4,6c-1.3-0.5-1.2-1.3-1.1-2.1c0.8-4.2-1.4-7-4.7-9.1c-3.3-2.2-7.6-2.1-10.8,0.1c-5.2,3.5-7.9,9.8-6.8,16
		c1,4.8,5.5,8.2,11.4,8.8C165.7,535.1,167.1,534.4,169.6,535.6z"/>
	<path class="seal" d="M288.5,571.5h-9.6c2.6-2,3.1-4.5,2.9-7.3c-0.2-3.6,0.3-7.3-0.1-10.1c-0.7-2.2-2.2-0.7-2.9-2c1.7-1.8,4.1-2,6.4-2.6
		c1,2.1,0.2,4.2,0.8,6.5c1.6-1.5,3-3.1,4.6-4.3c1.8-1.5,3.9-2.8,6.4-1.7s2.7,3.6,2.7,6s-0.2,5-0.3,7.5c-0.2,5.3-0.2,5.3,3.1,8.4
		c-1.2,1.1-2.5,0.2-3.8,0.2s-2.3,0-3.9,0c0.8-3.4,1-6.8,0.7-10.3c-0.1-3.1,1.6-6.6-1.6-9.5c-3.6,0.5-5.2,3.3-6.8,5.9
		c-1.2,1.9-1.3,4.1-1.6,6.2C284.9,567.3,285.4,569.8,288.5,571.5z"/>
	<path class="seal" d="M178.7,43c-1.7,3-4.6,2.8-6.4,5l9.1,17.9c3.2,0,3.1-3,5.6-4.2c-1,4.5-2.7,7.7-7.1,9.9c-5.8-6.1-7.4-14.7-12.1-21.2
		c-1.7-0.9-2.7,1.6-4.7,0.3c5.3-3.6,1.3-7.3,0.1-10.8c1.2-2,2.8-3.9,4.6-5.5c-0.4,3.8,0.4,6.4,2.3,8.7
		C172.7,46.1,175.4,43.6,178.7,43z"/>
	<path class="seal" d="M85.4,149.2c2.5-1.6,1.5-3.9,2.3-5.7c2.2,4,1.8,7.5-1.2,11c-4.3-0.3-7.1-3.7-10.6-5.8s-6.5-4.5-9.6-6.6
		c-2.1,0.1-1.9,2.5-3.4,2.8c-0.3-0.2-0.7-0.5-0.7-0.6c1.3-3.3,0.3-5.7-2.9-7.4c-0.9-0.6-1.7-1.2-2.5-1.9c0.4-1.9,0.8-3.8,1.3-6.6
		c2,3,3.7,5.4,6.5,6.4c3.6,1.4,4.5-2.5,7.3-4.1c-0.2,3.1-2.6,4.5-3.4,7.1L85.4,149.2z"/>
	<path class="seal" d="M540.7,413.9c0.5,2.4,1.3,4.5,1.1,6.9s-1.1,4.2-3.6,4.7c-2.2,0.6-4.5-0.5-5.4-2.6c-1.3-2.7-2-5.6-2.1-8.7
		c-0.1-1.8,0-3.6,0-5.4c-1.7-1.2-3.1-2.8-5-1.2s-1.6,4-0.6,6c0.8,1.7,2.3,3,3.8,4.9c-2.9,0.3-4.1-1.4-5.9-2.1
		c-0.7-3.6-0.7-7,1.1-10.3c1.7-3,2.9-3.5,6.1-2c3.9,1.8,7.7,3.8,11.6,5.8c0.5,0.2,1.1,0.4,1.7,0.5c1.5-0.8,0.5-2.3,1.2-3.3
		c0.4,0.2,0.8,0.2,0.9,0.4c1.4,2.5,1.7,5-0.5,7.1C543.5,415.4,542.4,413.7,540.7,413.9z M533.2,409.4c-0.5,2.4-0.7,4.8-0.4,7.2
		c0.1,2.2,1,3.8,3.2,4.6c1.1,0.5,2.4,0,3.1-1c1.2-1.8,0.9-3.8,0-5.6C537.8,412.3,535.9,410.8,533.2,409.4z"/>
	<path class="seal" d="M318.6,555.5c0.7-1.8,0.2-3.9-1.3-5.2c-5.6-0.3-6.1,4.4-7.6,8.6c-1.5-2.1-1.2-3.9-1.4-5.7c2.4-2.6,5.6-4.3,9.1-4.8
		c3.3-0.5,4.7,0.5,5.2,3.8c0.6,4.5,0.9,8.9,1.3,13.4c0.1,0.6,0.2,1.3,0.3,1.8c1.5,0.6,2.2-0.8,3.2-0.9c1.1,1.5-0.8,3-5.3,4.5
		c-2.3-0.7-1.4-3.1-2.7-5c-1,2.3-2.8,3.5-4.5,4.7c-2.6,1.8-4.5,1.8-6.3,0s-1.9-4-0.5-6.4c1.2-1.8,2.7-3.4,4.5-4.6
		C314.5,558.2,316.6,556.8,318.6,555.5z M319.4,557.6c-3,0.9-5.6,2.6-7.6,5.1c-1.3,1.5-1.8,3.3-0.2,4.9c1.2,1.3,3.7,1.1,5.3-0.5
		C319.4,564.4,319.7,561.2,319.4,557.6z"/>
	<path class="seal" d="M30.4,350.2c-6.6,0.1-12.1-5.2-12.2-11.8c0,0,0,0,0,0c0-5.6,4.7-9.5,11.2-9.5c6.7,0.1,12.4,5.6,12.3,11.9
		C41.6,346.3,36.8,350.3,30.4,350.2z M27.9,347.4c4.3,0.1,8.2-2.3,10.2-6.1c2.2-4,0.3-8.1-4.1-9.3c-3.8-1.1-9,1.1-11.6,5
		c-1.5,2.2-2.1,4.5-0.7,7C23,346.2,25.4,347.5,27.9,347.4L27.9,347.4z"/>
	<path class="seal" d="M184.9,41.6c-2-0.5-2.8,1.4-4.3,0.9c2-3.6,2.9-4.5,7-7.2c2.7,6.2,5.6,12.4,8,18.6c1.3,3.4,2.8,6,7.2,5.4
		c-3.7,3.2-8.2,4.1-12.9,6.7c0.5-3,3.5-4,2.7-6.3c-0.7-2-1.5-4-2.3-6C188.5,49.6,187.1,45.3,184.9,41.6z"/>
	<path class="seal" d="M64.8,443.3c-6-0.1-11.2-4.8-11.4-10.3s4.7-10.5,10.8-10.8c2-0.3,4,0,5.8,0.7c5,2.3,7.8,6.9,6.8,12
		C75.9,439.6,70.5,443.4,64.8,443.3z M63.3,441.2c5.5,0.1,11.1-6.4,10.3-11.8c-0.4-3.1-3-5.4-6.2-5.3C61,424,57,430.7,57.1,435.4
		C57.2,438.9,59.8,441.2,63.3,441.2z"/>
	<path class="seal" d="M54.9,408.1l-6.5-13.7c-4.1,1.8-7.3,4.4-7.2,8.9s4.2,5.9,7.2,8.2c-4-0.1-7.7-2.1-10-5.4c-2.2-3.1-1.4-6.4,0.6-9.3
		c3.8-5.6,13-6.9,18.2-2.6C62.1,398.2,61.4,403.2,54.9,408.1z M50.3,394c1.5,3.5,2.8,6.4,4.2,9.7c2.6-1.7,3.9-3.6,3-6.3
		C56.5,394.4,53.9,394,50.3,394z"/>
	<path class="seal" d="M395.3,546.1c-0.3,3.6-2.2,6.9-5.1,9c-3.2,2.4-7.8,1.8-11-1.2c-4.5-4.2-4.9-12.6-0.9-17.3c4.3-5,9.8-4.1,13.8,2.4
		c-4,2.8-9.1,3.5-13.6,5.9c0.8,3.9,3,6.6,6.9,7.4C390.6,553.5,392.6,549.4,395.3,546.1z M378.1,543.4c3.5-1.8,6.9-2.2,9.8-4.2
		c-1.7-2.5-3.6-4-6.4-2.8S377.5,539.5,378.1,543.4L378.1,543.4z"/>
	<path class="seal" d="M132,511.6c-4,2.7-7.5,2-10.9,0.6c-3-1.2-4.4-3.9-4.6-7.2c-0.4-7.2,7.7-14,14.8-12.3c6.5,1.5,8.4,7.2,4.2,13.1l-11.4-8.8
		c-3.2,2.9-4.2,6.3-2.9,10C122.9,511.7,127.3,511.4,132,511.6z M125.3,495.6l8.1,6.7c1.8-2.7,1.9-4.9,0-6.8
		C131.2,493.4,128.6,493.8,125.3,495.6L125.3,495.6z"/>
	<path class="seal" d="M555.6,334.4c0.6,5.3-1.7,10-1.9,15c4.1,1.3,7.6,0.6,10.2-2.4c3.3-3.9,0.8-7.6-1.3-11.8c5.4,4,7.3,9.9,4.8,13.9
		c-2.6,4.3-8.5,6-13.7,3.6c-3.4-1.4-6.1-4.2-7.3-7.7C544.5,339.2,548,334.9,555.6,334.4z M551.9,348.9c0.4-3.9,2.2-7,1.2-10.5
		c-4.2,1-5.1,1.5-5.3,3.8C547.4,345,548.6,347.2,551.9,348.9L551.9,348.9z"/>
	<path class="seal" d="M68.1,452.1l12-8.5c1.1-1.8-0.8-2.4-0.6-3.6c0.2-0.4,0.5-0.6,0.8-0.4c1.1,1.3,3,1.7,4.5,0.8c1.4-0.6,2.8-1,4.3-1.2
		c4.2-0.6,7.5,0.7,9.6,4.9c-1.5,1.6-3.2,2.9-5.1,3.9c-1.2-2.5,2.6-3.9,0.4-6.5c-2.4-1.3-4.9-0.5-7.2,1.6s-0.7,4.2,1,6.9
		c-2.8-0.7-3-3.1-5-3.8c-2.8,1.9-5.8,3.9-8.6,6.1c-2.1,1.6-5.4,2.8-2.5,7.3l-1.6-0.4l-5.8-8c1.1-1.2,1.5-0.3,2-0.1
		S67.3,451.6,68.1,452.1z"/>
	<path class="seal" d="M215.9,541.5c-5.4-0.4-9.2,4-10.8,12.7c0.5,1.9,2.6,2,3.6,3.8c-2.2,0.5-3.8-0.8-5.6-1.4s-3.9-0.8-5.8-2.3
		c0.8-1.5,3.1-0.2,3.7-1.8c0.5-1.4,1.2-2.7,1.7-4.1c1.1-3.3,2.6-6.5,3.1-10c0-1.5-2.4-0.5-2.2-2.5c2.2-0.6,4.4-0.7,6.6-0.4
		c0.9,2.4-1.2,4.1-1.1,6.2c6.8-4,6.8-4,10.9-2.4c-0.3,2.4-1.1,4.8-2.5,6.8C215.9,544.7,217.5,542.5,215.9,541.5z"/>
	<path class="seal" d="M571.4,320.9c-0.4,3.6-0.7,7.1-1.1,11.2c-5.1-5.8-11.8-3.6-17-4.8c-2,0.6-1.2,2.1-2.3,2.8c-1.8-1.6-1.4-4-2.2-6
		c1.7-1.9,3.7-0.2,5.5-1c-1.5-3.1-6-5.1-3.6-9.8c2.4-0.2,4.9,0.1,7.2,1c-1.2,2-4.5,0.4-4.6,3.4c1.7,4.3,9.4,8.4,14,7.4
		c2.4-0.5,2.4-2.8,3.3-4.4L571.4,320.9z"/>
	<path class="seal" d="M551.7,297.7c2.1-0.5,4.3-0.2,6.2,0.7c-2.3,1.8-5.6,1.9-6,5c-0.2,1.5,0.6,2.5,2,3.2c2.1,0.3,3.3-1.2,4.4-2.7
		s1.9-2.7,2.9-4.1c1.6-2.1,3.3-3.8,6.3-3c2.8,0.7,5,3,5.3,5.9c0.6,2.9,0.1,5.8-1.4,8.3c-2.1,0.4-4,0-6.3-0.2c0.9-2.4,2.9-1.7,4-2.6
		c1.5-1.3,2.7-2.6,2.4-4.6c-0.1-1.6-1.1-2.9-2.6-3.4c-2-0.5-3.5,0.4-4.7,2s-2.3,3.2-3.6,4.8c-1.4,1.8-2.9,3.5-5.4,2.8
		c-2.5-0.7-4.3-2.8-4.6-5.4C550.1,302.2,550.5,299.7,551.7,297.7z"/>
	<path class="seal" d="M437,498.1l-3.6,1.5c1.1-3.2,2.8-5.2,4.4-7.5c5,8.4,11,15.7,16.2,23.5c1.3,1.9,2.9,1.5,4.8,1.3c-2.3,2.8-5.1,4.6-8.3,6.5
		c1.3-4.3,1.4-4.3-0.9-7.6C445.5,510,441.3,504.2,437,498.1z"/>
	<path class="seal" d="M247.6,546.7c0.4,2-0.7,3.7-1.5,5.9c-2.1-2-0.8-5.8-4.3-6.5c-1.6-0.3-3,0-3.8,1.7c-0.1,1.7,1,3,2.1,4.1s2.1,2.1,3.2,3.2
		c1.9,1.9,4,3.8,2.5,6.9c-1.3,2.8-4.1,4.5-7.2,4.5c-2.9,0.2-5.7-0.9-7.6-3c0.5-3.5,0.5-3.5,1.9-5.8c1.2,0.8,0.6,2.1,0.9,3.1
		c0.4,1.8,1.8,3.3,3.5,3.9c1.8,0.8,3.3,0,4.4-1.3c1-1.2,1.1-2.9,0.2-4.2c-1.3-2.2-3.4-3.7-5.1-5.5s-3-3.6-1.9-6.2
		c1-2.2,4.5-4,7.1-3.5C244.1,544.6,246.2,545,247.6,546.7z"/>
	<path class="seal" d="M483.1,488.5c0.8,5,0.2,8.6-2.1,11.8s-7.5,4-11.2,1.7c-4.7-2.9-6.7-7.3-6.3-12.7c0.3-5.6,4-8.4,9-10.2
		c1.8,1.1,3,2.8,4.4,4.3c-1.5,1.8-2.4,0.2-3.3-0.1c-3-1.3-6.6,0-7.9,3.1c-0.4,1-0.6,2.1-0.5,3.2c0.4,4.1,4.5,8.6,8.5,9.3
		c3.7,0.7,6.8-1.4,7.8-5.2C481.9,492.4,481.4,490.8,483.1,488.5z"/>
	<path class="seal" d="M558.8,357.7c2,2.1,3.4,4.7,4,7.5c1.1,4.7-1.8,9.4-6.5,10.6c-1.4,0.3-2.8,0.3-4.1,0c-2.3-0.4-4.5-1.4-6.3-2.8
		c-6.1-4.8-6.4-11.6-0.7-17.8c1.7,0.5,3.7,0.6,5.3,1.9c-0.4,1.6-1.6,1.1-2.4,1.2c-2.2,0-4.2,1.5-4.9,3.6c-0.9,2.4-0.3,5.2,1.6,6.9
		c2.3,2.2,5.4,3.4,8.7,3.2c5.6-0.2,8.2-4.4,6.5-9.7C559.4,361,558.1,360.1,558.8,357.7z"/>
	<path class="seal" d="M258.8,547.5c1.3,2.5,3.5,1.9,4.6,3.3c-1.6,1.1-3.2-0.1-5.2,0.2c-1.1,5-1.9,10.1-2.4,15.3c2,1.2,3.2-1.1,4.7-0.1
		c-3.1,3-3.4,3.1-8.1,2.7c-1-6.1,1.4-11.9,1.6-18.1c-0.4-1.2-2.1-0.4-3.1-1.8c4-0.5,4.4-3.6,4.8-6.5c1.4-1.6,3-1.4,5.5-2
		C258.9,543.2,258.2,545.5,258.8,547.5z"/>
	<path class="seal" d="M102.4,465.5c0.1,2,1.4,2.9,2.2,4.5c-2.7,0.2-2.9-2.5-4.6-3.4c-3.9,3.5-8.3,6.7-11.8,10.8c0.8,1.6,2.6,1.4,3.6,2.6
		c-4.2,0.5-4.5,0.4-7.9-3c3.2-5.4,9.1-8.3,13.3-13.3c0.3-1-1.8-1.3-1.3-2.6c3.5,0.9,3.5,0.9,8.2-2.5c1.7,0.3,3.2,1.1,4.4,2.3
		C105.6,461.5,103.4,462.7,102.4,465.5z"/>
	<path class="seal" d="M453.4,498.5l-3.5,2.1c0.8-2.6,2.2-5,4.1-7c3.6,3.5,6.2,7.5,9.2,11.2c1.9,2.4,3.6,4.6,7.2,4.2l-7.6,6.1
		c1.3-4-1.3-6.3-3.3-8.8S455.5,501.2,453.4,498.5z"/>
	<path class="seal" d="M411.7,546l-10.8,4.6c0.2-2.1,2.2-2.8,1.8-4.3c-0.3-1.3-0.8-2.5-1.3-3.7c-1.4-3.3-3-6.6-4.2-9.4c-1.5-1.8-2.7,0.7-4.1-0.8
		l6.1-4.4c0.7,0.2,0.7,2.2,1.4,3.5c0.9,1.7,1.4,3.7,2.4,5.4C405.1,540.2,404.9,545.4,411.7,546z"/>
	<path class="seal" d="M274.2,570.9c-3.3-0.5-6.6-0.6-10.2-0.7c3.5-3.2,3.5-3.2,3.9-8.2c0.3-3.3,1-6.5,0.7-9.3c-0.6-1.8-2.1-1-2.8-2.1
		c2-1.2,4.2-1.9,6.6-2c0.8,5.2-0.8,10-0.8,14.9C271.6,567.8,271.5,567.8,274.2,570.9z"/>
	<path class="seal" d="M222,541.7c2.2-0.7,4.3-0.5,6.8-0.5c-0.5,5.3-2.4,9.9-3.5,14.6c-0.6,2.6-1.8,5.2,1.8,7.2c-3.9,0.1-6.9-1.4-10.4-2.3
		c3.9-0.8,4.6-3.7,5.3-6.8c0.7-3.2,1.7-6.4,2.4-9.2C224.3,542.8,222.1,543.8,222,541.7z"/>
	<path class="seal" d="M455,118.7c5.1-0.3,10.1-0.2,13.4-4.8c0-1.6-1.4-1.4-2.1-1.9c-1.5-1.2-2.1-2.7-0.8-4.3c1-1.4,2.9-1.9,4.4-1
		c4.1,1.8,4.9,6.7,1.2,9.7C466.2,120.2,460.8,121.2,455,118.7z"/>
	<path class="seal" d="M305.7,189.2c3.9-0.8,7.6,0.8,11.1,1.7c9.9,2.8,19.2,7.3,27.5,13.3c0.6,0.5,1.2,1.1,1.6,1.8l-0.3,0.4l-4.9-2.2l0.1,0.1
		c-0.7-1.1-1.4-2.2-2.9-2.2c-0.1-0.5-0.4-0.8-0.9-0.5c-0.2,0.1-0.2,0.5-0.2,0.7c-1.8-2.4-4-3.9-7.1-4c-1-2.1-2.5-3.1-4.8-2.2
		l0.1-0.1l-6.2-2.7c-1.6-1.5-3.7-1.5-5.7-2.1c0.2,1.7,0.4,2.9,0.6,4.1l0.1-0.1c-2.1-3.5-5-5.2-9.2-3.9
		C304.7,190.5,305.1,189.7,305.7,189.2L305.7,189.2z"/>
	<path class="seal" d="M536.7,211.6c-0.2,2-1.9,3.6-3.9,3.6c-2.1-0.2-3.6-2-3.4-4.1c0.1-1.9,1.7-3.4,3.6-3.3
		C535.1,207.8,536.7,209.5,536.7,211.6C536.7,211.6,536.7,211.6,536.7,211.6z"/>
	<path class="seal" d="M27.8,243.3c0.2-2.2-2.3-4.7,0.6-6.8c1.6,0.2,3.1,0.8,4.4,1.7v-0.1c-1.3,2.2-1.2,4.8-2.1,7.1l0.1-0.1l-2.1-1.1l0.1,0.1
		c0-0.7-0.3-1.2-1.2-1.1L27.8,243.3z"/>
	<path class="seal" d="M182.1,30.2c-2.5-0.7-3.7-1.8-3.2-4c0.3-1.2,1.3-2,2.5-2c1.2-0.1,2.3,0.5,2.7,1.7C185.4,28.2,183.6,29,182.1,30.2z"/>
	<path class="seal" d="M229.4,536.1c-1.8-1.2-3-2.3-1.5-4.1c0.5-0.9,1.7-1.1,2.5-0.6c0.2,0.1,0.4,0.3,0.5,0.5
		C232.6,533.9,231.4,535.1,229.4,536.1z"/>
	<path class="seal" d="M448.1,491c-2.7-2.4-2.7-2.4,0-4.8C450.7,488.6,450.7,488.6,448.1,491z"/>
	<path class="seal" d="M394.2,518.5c1.7,1.1,3.3,2,1.6,4c-0.6,0.9-1.9,1.1-2.8,0.5c-0.2-0.2-0.4-0.4-0.6-0.6C391,520.4,392.4,519.5,394.2,518.5z
		"/>
	<path class="seal" d="M28.7,244.2c0,0.7-0.2,1.5-1,1.3c-3.1-0.7-4-3.3-2.4-6.9c1,1.7,0.1,4.2,2.5,4.8l-0.1-0.2c0,0.6,0.5,1.1,1.2,1.1
		L28.7,244.2z"/>
	<path class="seal" d="M272,543.2c-1.5-0.1-2.3-0.9-2.4-2.2c-0.1-1.1,0.6-2,1.7-2.1c0.1,0,0.3,0,0.4,0c1-0.2,1.9,0.5,2.1,1.5c0,0.2,0,0.4,0,0.6
		C274,542.1,273.2,543.1,272,543.2z"/>
	<path class="seal" d="M245.4,202.9c0.8-1.1,2-1.7,3.4-1.6l-0.1-0.1v2.1l0.1-0.1l-2.8,0.4L245.4,202.9z"/>
	<path class="seal" d="M14.7,227.3c0.9-0.1,1.8-0.2,2,1l0.1-0.1c-0.8,0-1.8,0.3-2-1L14.7,227.3z"/>
	<path class="seal" d="M238.7,208.2c-0.1-0.8,0.4-1,1-1l-0.1-0.1c0,0.7-0.3,1-1,1L238.7,208.2z"/>
	<path class="seal" d="M97.8,288.2c-0.5-0.1-0.9-0.6-1-1.1l-0.1,0.1C97.2,287.5,97.7,287.6,97.8,288.2L97.8,288.2z"/>
	<path class="seal" d="M221.6,345.2c1.9-1.3,0-2.7,0-4.1c2.6,1.3,3,4.2,4.3,6.3c4.7,7.7,10.7,14.3,16.9,20.8c-1.2,0.5-2.6,0.1-3.4-0.9
		c-5.2-5.9-10.4-11.8-14.5-18.5C224,347.4,222.9,346.2,221.6,345.2z"/>
	<path class="seal" d="M339.8,371.2c-0.2,1.1-1.6,1.8-1,3.1c-3.6,0.1-5.5,2.2-6.6,5.8l-0.4-2.2c-1.2-0.8-2,0.9-3.1,0.5
		C332.1,375.5,335.8,373.1,339.8,371.2z"/>
	<path class="seal" d="M215.6,334.2l2.1,0.2l-0.1-0.1c0.4,1,0.8,0.9,1.2,0l-0.1,0.1c1.6,2,2.7,4.4,3.1,7C219,339.6,218.1,336.2,215.6,334.2z"/>
	<path class="seal" d="M351.8,360.2c-0.2,2.6-2.5,3-4.1,4.1C348,362.2,349.7,360.5,351.8,360.2z"/>
	<path class="seal" d="M347.8,366.2c-1,0.3-1.8,1.5-3.1,1c0.2-1.8,1.8-2.4,3.1-3.1V366.2z"/>
	<path class="seal" d="M217.7,334.3l-0.1-3.2c1.5,0.7,0.9,2,1,3.2l0.1-0.1h-1.2L217.7,334.3z"/>
	<path class="seal" d="M367.8,334.2c-0.3,0.7-0.2,1.7-1.1,2.1C366.6,335.4,366.8,334.6,367.8,334.2z"/>
	<path class="seal" d="M271.6,192.2c1.4,0.2,2.7,0.6,3.2,2.1C273.2,194.3,272.4,193.3,271.6,192.2z"/>
	<polygon points="265.8,195.3 265.7,195.4 265.9,195.3 		"/>
	<polygon points="270.5,386.8 270.2,386.9 270.2,386.6 		"/>
	<polygon points="259.3,381.9 259.2,381.7 259.4,381.7 		"/>
	<polygon points="249.6,376.2 249.8,376.4 249.7,376.2 		"/>
	<path class="seal" d="M315.6,195.3c0.4-1.6,2-1.6,3.2-2.1C317.7,193.9,317.1,195.2,315.6,195.3z"/>
	<path class="seal" d="M324.8,196.1c0.5,0.2,0.8,0.9,0.5,1.4c0,0,0,0,0,0c-0.8-0.5-0.6-1-0.4-1.6L324.8,196.1z"/>
	<path class="seal" d="M329.8,198.2c-0.3,1.1-1.4,0.9-2.2,1.1C327.9,198.1,329,198.3,329.8,198.2z"/>
	<path class="seal" d="M336.7,202.2c0.2,0.2,0.6,0.3,0.9,0.2C337.1,202.7,336.9,202.5,336.7,202.2z"/>
	<path class="seal" d="M199.6,289.3l1.2-1.2C200.7,288.7,200.2,289.2,199.6,289.3z"/>
	<path class="seal" d="M293.7,390.2c1.3,0.2,0.9,1.3,1.1,2.2C294,392,293.5,391,293.7,390.2z"/>
	<path class="seal" d="M292.6,389.2c0.6,0.1,1.1,0.6,1.2,1.2C293,390.3,292.8,389.8,292.6,389.2z"/>
	<path class="seal" d="M358.8,355.3l-1.1-1.1L358.8,355.3z"/>
	<path class="seal" d="M296.7,392.3c0.2-0.8-0.1-1.9,1.1-2.2L296.7,392.3z"/>
	<path class="seal" d="M297.7,390.3c0-0.7,0.5-1,1.1-1.2L297.7,390.3z"/>
	<path class="seal" d="M281.7,389.2c1,0.4,0.8,1.4,1.1,2.2C282,390.9,281.6,390,281.7,389.2z"/>
	<path class="seal" d="M201.6,276.3c0-0.8,0.6-1,1.1-1.2C202.8,275.8,202.3,276.3,201.6,276.3z"/>
	<path class="seal" d="M302.6,193.3c0.1-0.7,0.3-1.2,1.1-1.1c0.1,0.5-0.3,1.1-0.8,1.1C302.9,193.3,302.8,193.3,302.6,193.3z"/>
	<path class="seal" d="M303.7,192.3c-0.1-0.9,0.5-1,1.1-1.1C304.9,192,304.4,192.3,303.7,192.3z"/>
	<path class="seal" d="M309.7,389.3c0.1-0.9,0.1-1.8,1.1-2.2C310.7,388,310.3,388.8,309.7,389.3z"/>
	<path class="seal" d="M33.2,240.6c0.2,0.1,0.3,0.4,0.1,0.7c0,0.1-0.1,0.1-0.1,0.1C32.9,241.1,32.9,240.8,33.2,240.6z"/>
	<path class="seal" d="M198.7,287.3v-1.2c0.1,0.3,0.1,0.5,0.2,0.8C198.9,287,198.7,287.2,198.7,287.3z"/>
	<g>
		<g>
			<path class="seal" d="M186.1,425.5c0.4,0.3,0.8,0.6,1.3,0.9c-2,8.3-3.7,16.8-5,25.4c-0.3,1.9-0.3,3.6-0.1,5.1c0.2,1.5,0.9,2.5,2,3.3
				c-0.2,0.3-0.4,0.6-0.6,1c-3.1-1.8-6.2-3.8-9.3-5.8c0.2-0.3,0.4-0.6,0.6-0.9c0.2,0.1,0.4,0.3,0.6,0.4c0.3,0.2,0.6,0.1,0.9-0.4
				c0.1-0.1,0.1-0.3,0.2-0.5c0.5-2.9,1-5.9,1.6-8.8c-3.5-2.4-7-4.9-10.4-7.5c-2.9,1.6-4.9,2.9-5.8,4.1c-0.5,0.6-0.6,1.3-0.4,2.1
				c0.2,0.8,0.8,1.5,1.6,2.2c0.4,0.3,0.9,0.7,1.3,1c-0.2,0.3-0.4,0.6-0.7,0.9c-3.7-2.8-7.3-5.7-10.8-8.7c0.2-0.3,0.5-0.6,0.7-0.9
				c1.8,1.4,4.7,1.3,8.4-0.3C170.5,434.3,178.5,430.1,186.1,425.5z M181.5,430.5c-4,2.3-8,4.4-12.2,6.5c3,2.3,6.1,4.6,9.2,6.7
				C179.4,439.2,180.4,434.8,181.5,430.5z"/>
			<path class="seal" d="M195,445c2.5,0.5,4.9,0.9,7.4,1.3c0.3,0.2,0.7,0.4,1,0.5c-1.2,2.3-2.4,4.6-3.6,6.8c3.8-1.4,6.6-2.3,8.6-2.5
				c2-0.2,3.6-0.1,5,0.6c2.8,1.2,3.5,3.4,2.2,6.5c-1.6,3.8-3.2,7.5-4.8,11.3c-0.5,1.3-0.6,2.3-0.1,3c0.5,0.7,1.4,1.4,2.9,2.1
				c-0.1,0.3-0.3,0.7-0.4,1c-3.2-1.3-6.4-2.7-9.6-4.1c0.2-0.3,0.3-0.7,0.5-1c0.8,0.3,1.3,0.1,1.6-0.5c2-4.4,4-8.8,5.9-13.2
				c0.3-0.7,0.4-1.4,0.1-2.1c-0.2-0.7-0.7-1.1-1.4-1.5c-2.1-1-4.6-0.6-7.7,0.9c-3.1,1.6-5.5,3.9-7.2,7.1c-0.9,1.6-1.1,2.8-0.7,3.7
				c0.4,0.8,1.4,1.7,3,2.6c-0.2,0.3-0.3,0.7-0.5,1c-4.1-2-8.1-4.2-12.1-6.5c0.2-0.3,0.4-0.6,0.6-1c1.4,0.8,2.6,1.1,3.4,1
				c0.9-0.1,1.6-0.8,2.3-2c1.9-3.5,3.9-7,5.8-10.5c0.7-1.4,0.6-2.3-0.5-2.9c-0.4-0.2-1.2-0.4-2.3-0.7
				C194.6,445.7,194.8,445.3,195,445z"/>
			<path class="seal" d="M222.8,458.3c2.5,0.1,4.9,0.1,7.4,0.1c0.4,0.1,0.7,0.2,1.1,0.4c-0.8,2.4-1.7,4.9-2.5,7.3c3.5-2,6.1-3.3,8-3.9
				c1.9-0.5,3.5-0.6,5-0.2c2.9,0.8,3.9,2.8,3.1,6.1c-1,4-2,7.9-3,11.9c-0.3,1.3-0.2,2.4,0.3,3c0.6,0.7,1.6,1.2,3.1,1.6
				c-0.1,0.4-0.2,0.7-0.3,1.1c-3.3-0.8-6.7-1.6-10-2.5c0.1-0.4,0.2-0.7,0.3-1.1c0.8,0.2,1.3-0.1,1.5-0.8c1.3-4.7,2.6-9.3,3.8-14
				c0.2-0.8,0.2-1.5-0.2-2.1c-0.3-0.6-0.9-1-1.6-1.2c-2.2-0.6-4.6,0.1-7.3,2.1c-2.8,2-4.8,4.7-5.9,8.1c-0.6,1.7-0.6,3-0.2,3.8
				c0.5,0.8,1.6,1.5,3.3,2c-0.1,0.4-0.2,0.7-0.3,1.1c-4.3-1.3-8.5-2.8-12.7-4.5c0.1-0.3,0.3-0.7,0.4-1c1.5,0.5,2.7,0.7,3.5,0.4
				c0.8-0.2,1.5-1,1.9-2.3c1.4-3.8,2.7-7.5,4.1-11.3c0.5-1.5,0.2-2.4-0.9-2.8c-0.4-0.2-1.2-0.2-2.4-0.3
				C222.5,459,222.6,458.7,222.8,458.3z"/>
			<path class="seal" d="M248.2,485.2c1.5,0.3,2.6,0.3,3.5-0.1c0.8-0.3,1.4-1.2,1.6-2.6c0.8-4.2,1.6-8.4,2.4-12.6c0.2-1-0.4-1.6-1.6-1.8
				c-0.5-0.1-1-0.1-1.6,0c-0.3,0-0.5,0.1-0.7,0.1c0.1-0.4,0.2-0.8,0.3-1.2c2.4-0.3,4.8-0.6,7.2-1c0.4,0.1,0.9,0.2,1.3,0.2
				c-1,5.7-2,11.4-2.9,17.1c-0.2,1.4,0,2.4,0.6,3c0.6,0.6,1.7,1.1,3.2,1.3c-0.1,0.4-0.1,0.7-0.2,1.1c-4.5-0.7-8.9-1.5-13.3-2.4
				C248,485.9,248.1,485.5,248.2,485.2z M260.3,456.2c0.7,0.1,1.2,0.5,1.6,1c0.4,0.5,0.5,1.1,0.4,1.7c-0.1,0.6-0.4,1.1-1,1.4
				c-0.5,0.3-1.2,0.5-1.8,0.3c-0.7-0.1-1.2-0.4-1.6-1c-0.4-0.5-0.5-1.1-0.4-1.7c0.1-0.6,0.5-1.1,1-1.4
				C259.1,456.2,259.7,456.1,260.3,456.2z"/>
			<path class="seal" d="M265.8,467.7c2.8,0.4,5.6,0.7,8.5,1c0,0.4-0.1,0.7-0.1,1.1c-0.7-0.1-1,0.2-1.1,0.7c0,0.3,0,0.7,0.1,1.1
				c1.4,4.9,3,9.7,4.7,14.5c1.4-2.3,2.7-4.7,4-7.1c1.3-2.4,2-4.3,2-5.8c0-1-0.2-1.7-0.8-2.2c-0.6-0.5-1.6-0.7-2.9-0.8
				c0-0.4,0.1-0.7,0.1-1.1c3.8,0.3,7.5,0.4,11.3,0.4c0,0.4,0,0.7,0,1.1c-2,0.2-4,2.1-5.9,5.7c-2.8,5.1-5.7,10.1-8.9,15
				c-0.5,0-1-0.1-1.6-0.1c-2-5.8-3.8-11.7-5.5-17.5c-0.9-3.1-2.2-4.8-4.1-5.1C265.6,468.4,265.7,468,265.8,467.7z"/>
			<path class="seal" d="M315.5,484.1c-3.8,4.8-7.9,7.3-12.1,7.5c-2.9,0.1-5.5-0.8-7.8-2.8c-2.2-2-3.3-4.4-3.3-7.2c0-3.2,1.3-6.1,3.7-8.7
				c2.4-2.6,5.1-4,8.4-4.1c2.6-0.1,4.7,0.5,6.4,2c1.7,1.5,2.7,3.4,3,5.7c-5.9,0.6-11.8,0.9-17.7,1c0,0.6,0,1.1,0,1.3
				c0,2.8,0.9,5.1,2.8,6.9c1.8,1.8,4.1,2.7,6.8,2.5c3.3-0.2,6.6-2.1,9.6-5.6C315.4,483.1,315.5,483.6,315.5,484.1z M309.3,475.7
				c-0.4-1.8-1.1-3.2-2.3-4.1c-1.2-0.9-2.5-1.4-4.1-1.3c-1.6,0.1-3,0.7-4.2,1.8c-1.2,1.1-2,2.5-2.3,4.2
				C300.7,476.3,305,476.1,309.3,475.7z"/>
			<path class="seal" d="M316.5,470.2c2.2-1.1,4.4-2.2,6.6-3.4c0.4-0.1,0.8-0.1,1.1-0.2c0.4,2.5,0.8,5,1.2,7.5c1.4-3,2.7-5.2,3.9-6.6
				c1.2-1.4,2.5-2.2,4-2.5c0.6-0.1,1.3-0.1,2.1-0.1c0.5,2.4,1,4.7,1.6,7.1c-0.6,0.1-1.3,0.3-1.9,0.4c-0.6-2.8-1.8-3.9-3.6-3.6
				c-1.8,0.4-3.2,1.9-4.2,4.8c-1,2.8-1.3,5.9-0.8,9.2c0.3,1.9,0.9,3.1,1.9,3.6c1,0.4,2.7,0.4,5.3,0c0.1,0.4,0.1,0.7,0.2,1.1
				c-5,0.9-10.1,1.7-15.1,2.3c0-0.4-0.1-0.7-0.1-1.1c1.6-0.2,2.7-0.6,3.3-1.3c0.6-0.6,0.8-1.6,0.7-2.9c-0.6-4-1.1-8-1.7-12
				c-0.2-1.4-0.9-2-2-1.8c-0.5,0.1-1.2,0.3-2.3,0.8C316.6,470.9,316.5,470.5,316.5,470.2z"/>
			<path class="seal" d="M343.4,477.9c0.6,1.9,1.7,3.3,3.2,4.1c1.5,0.8,3.2,0.9,5,0.4c1.5-0.4,2.5-1.1,3.3-2.1c0.7-1,0.9-2,0.6-3.1
				c-0.3-1-0.9-1.7-1.8-2.1c-0.9-0.4-2.5-0.9-4.8-1.4c-1.6-0.4-3.1-0.7-4.5-1.1c-1.3-0.4-2.3-0.8-2.9-1.4c-0.6-0.6-1-1.2-1.2-1.9
				c-0.4-1.5,0.1-3,1.4-4.5c1.3-1.5,3.1-2.6,5.7-3.4c1.5-0.4,3.3-0.6,5.3-0.6c0.6,2,1.2,3.9,1.9,5.9c-0.6,0.2-1.3,0.4-1.9,0.6
				c-0.5-1.7-1.5-2.8-2.8-3.5c-1.4-0.7-2.7-0.8-4-0.5c-1,0.3-1.6,0.7-2,1.4c-0.4,0.7-0.5,1.4-0.3,2.1c0.2,0.8,0.7,1.4,1.5,1.9
				c0.8,0.4,2.2,0.9,4.4,1.4c3.7,0.8,6.2,1.4,7.2,1.8c1.1,0.5,1.8,1.3,2.2,2.4c0.6,1.9,0.1,3.8-1.5,5.8c-1.6,2-3.9,3.4-6.6,4.2
				c-2,0.6-4.5,0.7-7.4,0.4c-0.5-2.1-1-4.2-1.5-6.3C342.2,478.2,342.8,478.1,343.4,477.9z"/>
			<path class="seal" d="M360.2,461c3.1-3.6,6.3-6.2,9.6-7.6c1.6-0.7,2.8-0.9,3.8-0.6c1,0.3,1.8,1.1,2.4,2.6c2,4.4,4.1,8.9,6.1,13.3
				c0.3,0.6,0.8,0.8,1.5,0.5c0.7-0.3,1.7-1.6,2.8-3.7c0.2,0.4,0.4,0.9,0.6,1.3c-1.7,3.4-3.5,5.5-5.2,6.3c-1.6,0.7-2.7,0.3-3.3-1
				c-0.5-1.1-0.9-2.1-1.4-3.2c-1.4,2.8-2.8,4.9-4.1,6.4c-1.3,1.5-2.6,2.5-4.1,3c-1.4,0.5-2.8,0.5-4,0c-1.3-0.5-2.1-1.4-2.6-2.6
				c-1.1-3.2,2.9-8.3,10.8-15.9c-0.4-0.9-0.7-1.7-1.1-2.6c-0.3-0.8-0.9-1.3-1.7-1.6c-0.8-0.3-1.6-0.2-2.6,0.2
				c-1.6,0.7-2.8,1.9-3.6,3.8c-0.8,1.9-0.9,3.9-0.4,6.1c-0.6,0.2-1.2,0.4-1.8,0.6C361.5,464.6,360.8,462.8,360.2,461z M374.3,461.4
				c-3,1.9-5.2,3.9-6.7,6c-1.5,2.1-2.1,3.9-1.5,5.3c0.3,0.9,0.9,1.5,1.9,1.8c0.9,0.3,1.9,0.2,3.1-0.2c2.1-0.8,3.5-2.4,4.2-4.8
				C375.9,467.1,375.6,464.4,374.3,461.4z"/>
			<path class="seal" d="M381.2,450.9c1.8-1.8,3.5-3.7,5.2-5.5c0.3-0.2,0.7-0.4,1-0.6c1.2,2.2,2.5,4.4,3.7,6.7c0.4-3.3,0.9-5.9,1.6-7.6
				c0.7-1.7,1.7-3,3-3.8c0.5-0.3,1.2-0.6,2-0.8c1.3,2,2.6,4.1,3.9,6.1c-0.6,0.4-1.1,0.7-1.7,1.1c-1.5-2.4-3.1-3.1-4.7-2.1
				c-1.6,1-2.4,3-2.4,6c0,3,0.7,6,2.3,8.9c0.9,1.7,2,2.6,3.1,2.7c1.1,0.1,2.8-0.5,5.1-1.9c0.2,0.3,0.4,0.6,0.6,1
				c-4.5,2.7-9.1,5.2-13.8,7.5c-0.2-0.3-0.3-0.7-0.5-1c1.4-0.8,2.4-1.5,2.8-2.3c0.4-0.8,0.3-1.8-0.4-3c-1.9-3.6-3.8-7.2-5.7-10.8
				c-0.6-1.2-1.5-1.5-2.5-1c-0.4,0.2-1.1,0.7-1.9,1.6C381.6,451.6,381.4,451.3,381.2,450.9z"/>
			<path class="seal" d="M398.4,439.1c2.5-1.6,5-3.3,7.4-5c0.2,0.3,0.4,0.6,0.6,0.9c-0.6,0.4-0.7,0.8-0.5,1.1c0.1,0.2,0.3,0.3,0.5,0.4
				c4.6,2.6,9.4,5.1,14.3,7.5c-0.4-2.2-0.9-4.4-1.3-6.6c-0.7-3-1.6-5.2-2.7-6.6c-0.6-0.7-1.3-1.1-2-1c-0.7,0.1-1.7,0.5-2.8,1.4
				c-0.2-0.3-0.5-0.6-0.7-0.9c3.1-2.3,6.1-4.8,9.1-7.3c0.2,0.3,0.5,0.6,0.7,0.9c-0.9,0.8-1.4,1.7-1.5,2.5c-0.1,0.9,0,2.4,0.5,4.6
				c1.8,7.5,3.3,15.1,4.5,22.8c0.6,3.6-1,6.9-4.8,9.7c-2.3-0.3-4.5-0.6-6.7-0.9c0.3-0.6,0.6-1.2,0.9-1.8c2.2,0.4,4.2,0,5.9-1.2
				c0.9-0.6,1.6-1.4,2-2.3c0.5-0.9,0.7-1.8,0.6-2.6c0-0.8-0.2-2.3-0.5-4.3c-0.1-0.4-0.1-0.7-0.2-1.1c-5.4-2.6-10.6-5.4-15.7-8.4
				c-1.7-1-3-1.5-3.9-1.7c-1-0.1-2,0.1-2.9,0.7C398.8,439.7,398.6,439.4,398.4,439.1z"/>
		</g>
		<g>
			<path class="seal" d="M175.6,133.1c2.5-3.4,5-6.8,7.7-10.1c0.2,0.3,0.3,0.5,0.5,0.8c-0.4,0.4-0.6,0.9-0.7,1.5c-0.1,0.6,0.1,1.2,0.5,1.8
				c4.2,6.4,8.3,12.8,12.5,19.1c0.6,1,1.3,1.6,1.9,1.8c0.7,0.2,1.4,0.1,2.3-0.5c0.3-0.2,0.6-0.4,0.9-0.5c0.2,0.3,0.4,0.6,0.6,1
				c-3.2,2-6.3,4-9.3,6.2c-0.2-0.3-0.4-0.6-0.7-0.9c0.3-0.2,0.6-0.4,0.9-0.6c1.6-1.1,1.8-2.4,0.7-4.1c-3.9-5.7-7.8-11.5-11.7-17.2
				c-0.8-1.1-1.7-1.3-2.7-0.6c-0.5,0.3-1.4,1.4-2.7,3.2C176.1,133.7,175.9,133.4,175.6,133.1z"/>
			<path class="seal" d="M214.8,120.8c-0.7,1.9-1.5,3.5-2.5,4.8c-1,1.3-2.1,2.3-3.5,3c-2.2,1.1-4.3,1.4-6.2,0.7c-1.9-0.7-3.4-1.8-4.3-3.6
				c-1.2-2.2-1.4-4.7-0.2-7.5c1.1-2.8,3-4.9,5.6-6.2c2.9-1.4,5.8-1.4,8.6-0.1c2.8,1.3,5,4,6.7,7.9c1.3,3,1.9,6,1.9,9
				c0,3-0.5,5.5-1.5,7.8c-1,2.3-2.5,3.9-4.5,4.9c-1.5,0.8-3.2,1.2-4.9,1.3c-1.3-2.3-2.6-4.7-3.8-7c0.5-0.3,0.9-0.5,1.4-0.8
				c1.2,2.1,2.5,3.5,3.9,4.4c1.4,0.9,2.7,1,3.9,0.4c2-1,2.9-3,3-6.2c0.1-3.2-0.7-6.7-2.4-10.5C215.7,122.6,215.3,121.8,214.8,120.8
				z M203.6,113.4c-1.8,0.9-2.8,2.2-3.1,4c-0.3,1.8,0.1,3.5,1,5.3c1,1.8,2.2,3,3.8,3.7c1.5,0.6,3,0.6,4.5-0.1
				c1.4-0.7,2.3-1.9,2.7-3.5c0.3-1.7,0.1-3.4-0.7-5.2c-0.9-2-2.2-3.3-3.8-4C206.4,112.7,204.9,112.7,203.6,113.4z"/>
			<path class="seal" d="M229.5,121.4c0.6-1.9,1.5-3.4,2.6-4.6c1.1-1.2,2.4-2,3.9-2.5c2.1-0.7,4.1-0.6,6,0.1c1.8,0.8,3,2.3,3.7,4.7
				c0.7,2.4,0.3,4.9-1,7.3c-1.3,2.4-3.1,4-5.6,4.9c-2.8,0.9-5.4,0.5-7.8-1.4c-2.5-1.9-4.4-4.5-5.8-7.9c-1.7-4.3-2-8.6-0.8-13
				c1.2-4.4,3.9-7.3,7.9-8.5c1.7-0.5,3.7-0.7,5.8-0.5c0.7,2.6,1.5,5.2,2.2,7.8c-0.5,0.2-1.1,0.3-1.6,0.5c-0.7-2.3-1.7-4-3.1-5.1
				c-1.4-1.1-2.8-1.4-4.3-0.9c-1.5,0.5-2.7,1.6-3.5,3.4c-0.8,1.8-1.1,4-0.9,6.4c0.2,2.5,0.7,4.7,1.3,6.5
				C228.5,119.3,228.9,120.2,229.5,121.4z M235,116.6c-1.6,0.5-2.7,1.6-3.2,3.2c-0.5,1.6-0.4,3.3,0.3,5.2c0.7,1.9,1.7,3.3,3.1,4.3
				c1.3,1,2.7,1.2,4.1,0.8c1.4-0.5,2.3-1.5,2.9-3c0.5-1.6,0.5-3.3-0.1-5.3c-0.6-2-1.5-3.5-2.9-4.4
				C237.8,116.4,236.4,116.1,235,116.6z"/>
			<path class="seal" d="M247.9,100c1.6-1.6,3.2-2.8,4.9-3.7c1.6-0.9,3.3-1.5,4.9-1.8c2.2-0.4,4-0.1,5.6,0.7c1.5,0.9,2.4,2.2,2.7,3.9
				c0.2,1.6,0,3.2-0.7,4.8c-0.7,1.6-2.2,4.1-4.5,7.5c-2.5,3.8-4.8,7.6-7,11.5c3.8-0.9,7.7-1.6,11.5-2.2c1.2-0.2,2-0.6,2.4-1.3
				c0.4-0.7,0.7-1.6,0.7-2.8c0.3,0,0.7-0.1,1-0.1c-0.1,2.8-0.3,5.6-0.4,8.4c-0.3,0-0.6,0.1-0.9,0.1c0-0.1,0-0.2,0-0.3
				c-0.1-0.5-0.4-0.8-0.8-0.7c-5.2,0.8-10.5,1.8-15.6,3.1c-0.1-0.4-0.2-0.7-0.3-1.1c1.3-3.2,2.7-6.3,4.2-9.4
				c0.7-1.4,1.7-3.6,3.1-6.6c1.4-3,2.3-5.2,2.6-6.8c0.3-1.5,0.4-2.7,0.3-3.7c-0.2-1.1-0.7-2.1-1.6-2.8c-0.9-0.7-2-1-3.3-0.8
				c-1.9,0.3-3.4,1.6-4.5,3.7c-1.1,2.1-1.4,4.5-1,7c-0.5,0.1-1,0.2-1.5,0.3C249,104.6,248.4,102.3,247.9,100z"/>
			<path class="seal" d="M296.7,109c0.3,0.2,0.6,0.4,0.9,0.5c-1.2,2.2-2.4,3.3-3.6,3.3c-0.6,0-1.8-0.3-3.4-0.8c-1.4-0.4-2.3-0.6-2.8-0.6
				c-0.8,0-1.5,0.6-2.1,1.8c-0.3-0.2-0.6-0.3-0.9-0.5c1-2.3,2.1-3.5,3.3-3.6c0.6,0,1.6,0.2,3.2,0.7c1.5,0.5,2.5,0.7,3.1,0.7
				C295.2,110.7,296,110.1,296.7,109z"/>
			<path class="seal" d="M317.8,96.4c2-0.9,4-1.5,5.8-1.8c1.9-0.3,3.6-0.3,5.3,0c2.2,0.4,3.8,1.3,5,2.6c1.2,1.3,1.5,2.9,1.2,4.6
				c-0.3,1.6-1.1,3-2.3,4.3c-1.2,1.3-3.5,3.1-6.8,5.4c-3.6,2.7-7.1,5.5-10.5,8.4c3.9,0.5,7.7,1.1,11.6,1.9c1.2,0.2,2.1,0.1,2.7-0.4
				c0.6-0.5,1.2-1.3,1.6-2.4c0.3,0.1,0.7,0.1,1,0.2c-1.1,2.6-2.2,5.2-3.2,7.8c-0.3-0.1-0.6-0.1-0.9-0.2c0-0.1,0-0.2,0.1-0.3
				c0.1-0.5-0.1-0.8-0.6-0.9c-5.2-1.1-10.5-1.9-15.7-2.5c0-0.4,0.1-0.7,0.1-1.1c2.3-2.5,4.7-5,7.1-7.4c1.1-1.1,2.8-2.8,5.1-5.2
				c2.3-2.3,4-4.1,4.8-5.4c0.8-1.3,1.3-2.4,1.5-3.4c0.2-1.1,0-2.2-0.6-3.2c-0.6-1-1.5-1.6-2.8-1.8c-1.9-0.3-3.7,0.3-5.5,1.9
				c-1.7,1.6-2.8,3.7-3.4,6.3c-0.5-0.1-1-0.1-1.5-0.2C317.2,101.1,317.5,98.7,317.8,96.4z"/>
			<path class="seal" d="M354.2,100.5c2.8,0.9,4.8,2.8,5.9,5.8c1.1,3,0.9,6.3-0.5,10.2c-1.8,4.8-4.5,8.3-8,10.8c-3.5,2.5-6.5,3.4-9.1,2.6
				c-1.4-0.4-2.6-1.3-3.7-2.8c-1.1-1.4-1.7-3.2-2-5.2c-0.3-2.1-0.1-4.4,0.5-7.1c1.2-5,3.5-8.9,7.1-11.6
				C347.9,100.5,351.3,99.6,354.2,100.5z M351.4,102.4c-2.3-0.7-4.4-0.1-6.2,1.8c-1.8,1.9-3.1,4.5-4,7.9c-1,3.7-1,7.1-0.1,10.2
				c0.9,3.1,2.3,4.9,4.3,5.6c1.8,0.6,3.5,0.1,5.3-1.5c1.8-1.5,3.3-4.1,4.6-7.7c0.9-2.5,1.3-5,1.3-7.3c0-2.4-0.6-4.4-1.6-6
				C353.9,103.8,352.7,102.8,351.4,102.4z"/>
			<path class="seal" d="M369.6,110c2.2-0.3,4.3-0.4,6.2-0.2c1.9,0.2,3.6,0.7,5.2,1.4c2,1,3.4,2.3,4.2,3.9c0.8,1.6,0.8,3.2-0.1,4.8
				c-0.7,1.4-1.9,2.6-3.4,3.5c-1.5,0.9-4.3,2-8.1,3.4c-4.3,1.6-8.4,3.3-12.5,5.2c3.7,1.5,7.3,3.2,10.9,5c1.1,0.6,2,0.7,2.8,0.4
				c0.8-0.3,1.5-0.9,2.2-1.8c0.3,0.2,0.6,0.3,0.9,0.5c-1.8,2.2-3.5,4.4-5.2,6.6c-0.3-0.2-0.6-0.3-0.9-0.4c0-0.1,0.1-0.2,0.1-0.2
				c0.2-0.5,0.1-0.8-0.3-1.1c-4.8-2.5-9.8-4.7-14.8-6.7c0.1-0.3,0.3-0.7,0.4-1c2.9-1.8,5.9-3.6,8.9-5.2c1.4-0.8,3.5-2,6.4-3.6
				c2.9-1.6,5-2.9,6.1-3.9c1.2-1,2-2,2.4-2.8c0.5-1,0.6-2.1,0.3-3.3c-0.3-1.1-1.1-2-2.3-2.6c-1.8-0.8-3.7-0.7-5.9,0.4
				c-2.1,1.1-3.8,2.8-5,5.1c-0.5-0.2-1-0.4-1.4-0.6C367.7,114.4,368.7,112.2,369.6,110z"/>
			<path class="seal" d="M394,122.1c2.3,0,4.4,0.2,6.3,0.7c1.9,0.5,3.6,1.2,5,2.2c1.9,1.3,3.2,2.8,3.7,4.5c0.6,1.7,0.3,3.3-0.7,4.8
				c-0.9,1.3-2.2,2.3-3.9,3c-1.6,0.7-4.5,1.3-8.6,2.2c-4.5,1-8.9,2.1-13.2,3.4c3.5,2,6.9,4.2,10.3,6.5c1,0.7,1.9,1,2.8,0.8
				c0.8-0.2,1.6-0.7,2.5-1.5c0.3,0.2,0.6,0.4,0.9,0.6c-2.1,1.9-4.1,3.9-6.1,5.8c-0.3-0.2-0.5-0.4-0.8-0.6c0.1-0.1,0.1-0.2,0.2-0.2
				c0.3-0.4,0.3-0.8-0.2-1.1c-4.5-3.2-9.2-6.1-14-8.8c0.2-0.3,0.4-0.7,0.6-1c3.1-1.4,6.4-2.7,9.6-3.9c1.5-0.5,3.8-1.5,6.9-2.6
				c3.1-1.2,5.4-2.2,6.7-3c1.3-0.9,2.2-1.7,2.8-2.5c0.7-1,0.9-2,0.7-3.2c-0.2-1.2-0.8-2.1-2-2.9c-1.7-1.1-3.7-1.3-5.9-0.5
				c-2.3,0.8-4.1,2.2-5.7,4.4c-0.5-0.3-0.9-0.5-1.4-0.8C391.6,126.2,392.8,124.2,394,122.1z"/>
		</g>
	</g>
</svg>
